<?xml version="1.0" encoding="UTF-8" standalone="no"?>
<!DOCTYPE svg PUBLIC "-//W3C//DTD SVG 20010904//EN"
              "http://www.w3.org/TR/2001/REC-SVG-20010904/DTD/svg10.dtd">

<svg xmlns="http://www.w3.org/2000/svg"
     width="5.55556in" height="2.77778in"
     viewBox="0 0 400 200">
  <path id="Pfad"
        fill="none" stroke="black" stroke-width="1"
        d="M 11.22,36.77
           C 13.04,36.77 14.29,37.29 14.97,38.33
             15.66,39.37 16.00,41.30 16.00,44.11
             16.00,44.11 16.00,101.53 16.00,101.53
             16.00,104.74 15.39,106.91 14.19,108.03
             12.99,109.16 10.51,109.88 6.75,110.20
             6.75,110.20 6.75,112.00 6.75,112.00
             6.75,112.00 35.20,112.00 35.20,112.00
             35.20,112.00 35.20,110.20 35.20,110.20
             31.36,109.96 28.89,109.34 27.81,108.34
             26.74,107.34 26.20,105.18 26.20,101.89
             26.20,101.89 26.20,30.05 26.20,30.05
             26.20,30.05 25.72,29.81 25.72,29.81
             21.01,31.41 14.77,33.16 7.00,35.08
             7.00,35.08 7.00,37.00 7.00,37.00
             8.29,36.84 9.70,36.77 11.22,36.77 Z
           M 92.05,105.56
           C 89.24,105.56 87.40,105.13 86.52,104.27
             85.64,103.39 85.20,101.56 85.20,98.78
             85.20,98.78 85.20,58.00 85.20,58.00
             85.20,58.00 67.00,58.00 67.00,58.00
             67.00,58.00 67.00,60.05 67.00,60.05
             70.38,60.20 72.56,60.76 73.53,61.72
             74.51,62.67 75.00,64.61 75.00,67.53
             75.00,67.53 75.00,95.45 75.00,95.45
             75.00,97.60 74.47,99.41 73.42,100.88
             72.37,102.34 71.08,103.40 69.56,104.08
             68.04,104.75 66.70,105.20 65.53,105.44
             64.36,105.68 63.35,105.80 62.50,105.80
             60.24,105.80 58.29,104.91 56.66,103.12
             55.02,101.34 54.20,99.23 54.20,96.77
             54.20,96.77 54.20,58.00 54.20,58.00
             54.20,58.00 37.00,58.00 37.00,58.00
             37.00,58.00 37.00,59.69 37.00,59.69
             39.71,59.84 41.55,60.46 42.53,61.53
             43.51,62.61 44.00,64.53 44.00,67.30
             44.00,67.30 44.00,97.23 44.00,97.23
             44.00,102.01 45.30,105.83 47.91,108.70
             50.51,111.57 53.99,113.00 58.34,113.00
             59.68,113.00 61.02,112.81 62.36,112.44
             63.70,112.06 64.80,111.67 65.67,111.25
             66.55,110.84 67.55,110.15 68.70,109.20
             69.85,108.25 70.66,107.54 71.12,107.08
             71.60,106.62 72.41,105.80 73.55,104.61
             74.68,103.42 75.37,102.71 75.61,102.47
             75.61,102.47 75.61,112.62 75.61,112.62
             75.61,112.62 76.09,112.88 76.09,112.88
             80.88,110.87 86.39,108.98 92.64,107.23
             92.64,107.23 92.64,105.56 92.64,105.56
             92.64,105.56 92.05,105.56 92.05,105.56 Z
           M 100.84,109.11
           C 101.75,109.92 103.48,110.88 106.03,111.98
             102.05,115.19 99.22,117.92 97.53,120.17
             95.84,122.43 95.00,124.71 95.00,127.02
             95.00,130.17 96.96,132.88 100.88,135.12
             104.80,137.38 109.49,138.50 114.95,138.50
             122.36,138.50 129.27,136.54 135.70,132.62
             142.14,128.71 145.36,123.84 145.36,118.02
             145.36,114.40 144.13,111.48 141.69,109.25
             139.24,107.01 135.79,105.82 131.34,105.67
             131.34,105.67 116.14,105.00 116.14,105.00
             109.84,104.74 106.69,103.57 106.69,101.50
             106.69,100.22 107.50,98.68 109.12,96.88
             110.76,95.07 112.39,93.92 114.02,93.41
             117.55,93.80 119.78,94.00 120.72,94.00
             125.74,94.00 130.10,92.30 133.80,88.89
             137.50,85.48 139.36,81.03 139.36,75.55
             139.36,72.30 138.59,68.97 137.05,65.56
             137.05,65.56 146.36,65.56 146.36,65.56
             146.36,65.56 146.36,61.00 146.36,61.00
             146.36,61.00 137.38,61.00 137.38,61.00
             135.12,61.00 132.27,60.34 128.81,59.00
             125.35,57.67 122.11,57.00 119.08,57.00
             113.46,57.00 108.71,58.89 104.83,62.66
             100.94,66.42 99.00,70.99 99.00,76.38
             99.00,80.11 99.88,83.20 101.62,85.66
             103.38,88.12 106.30,90.34 110.38,92.31
             105.31,97.21 102.23,100.34 101.12,101.69
             100.03,103.03 99.48,104.51 99.48,106.11
             99.48,107.30 99.94,108.30 100.84,109.11 Z
           M 127.66,113.77
           C 132.89,113.77 136.59,114.22 138.75,115.14
             140.91,116.05 142.00,117.64 142.00,119.89
             142.00,123.47 139.98,126.39 135.95,128.64
             131.92,130.89 126.61,132.02 120.02,132.02
             115.00,132.02 110.98,131.18 107.95,129.52
             104.92,127.85 103.41,125.64 103.41,122.89
             103.41,121.49 103.72,120.14 104.34,118.83
             104.98,117.52 106.38,115.36 108.55,112.33
             113.35,113.29 119.72,113.77 127.66,113.77 Z
           M 127.64,88.09
           C 126.08,90.03 123.93,91.00 121.19,91.00
             118.21,91.00 115.46,89.45 112.95,86.36
             110.45,83.27 109.20,78.31 109.20,71.50
             109.20,68.09 109.96,65.43 111.48,63.50
             113.02,61.56 115.15,60.59 117.89,60.59
             120.33,60.59 122.41,61.40 124.12,63.00
             125.84,64.61 127.09,66.60 127.88,68.98
             128.66,71.37 129.22,73.50 129.53,75.38
             129.84,77.25 130.00,78.86 130.00,80.19
             130.00,83.51 129.21,86.15 127.64,88.09 Z
           M 153.53,109.36
           C 155.88,111.79 158.89,113.00 162.56,113.00
             167.38,113.00 173.22,110.01 180.11,104.02
             180.42,107.21 181.13,109.51 182.25,110.91
             183.36,112.30 185.12,113.00 187.52,113.00
             189.46,113.00 191.22,112.57 192.78,111.70
             194.34,110.83 196.16,109.20 198.23,106.80
             198.23,106.80 198.23,103.67 198.23,103.67
             196.40,105.17 194.64,105.92 192.95,105.92
             191.60,105.92 190.66,105.43 190.14,104.44
             189.62,103.45 189.36,101.65 189.36,99.05
             189.36,99.05 189.36,75.97 189.36,75.97
             189.36,69.56 188.14,64.80 185.70,61.69
             183.27,58.56 178.85,57.00 172.42,57.00
             166.67,57.00 161.83,58.25 157.89,60.75
             153.96,63.25 152.00,66.31 152.00,69.92
             152.00,71.23 152.52,72.38 153.55,73.38
             154.58,74.38 155.77,74.88 157.11,74.88
             158.63,74.88 159.96,74.40 161.09,73.45
             162.24,72.50 162.81,71.37 162.81,70.06
             162.81,69.76 162.71,69.08 162.50,68.02
             162.30,66.95 162.20,66.10 162.20,65.48
             162.20,63.96 163.04,62.65 164.72,61.55
             166.41,60.43 168.45,59.88 170.86,59.88
             176.95,59.88 180.00,63.15 180.00,69.70
             180.00,69.70 180.00,76.92 180.00,76.92
             178.96,77.32 177.32,77.95 175.08,78.81
             172.84,79.68 171.20,80.33 170.16,80.77
             169.11,81.20 167.61,81.84 165.66,82.67
             163.70,83.50 162.24,84.20 161.28,84.80
             160.32,85.38 159.12,86.13 157.67,87.05
             156.23,87.95 155.16,88.84 154.44,89.70
             153.72,90.57 152.96,91.54 152.16,92.61
             151.35,93.67 150.79,94.82 150.47,96.05
             150.16,97.27 150.00,98.59 150.00,100.00
             150.00,103.80 151.18,106.92 153.53,109.36 Z
           M 179.39,100.83
           C 178.99,101.62 178.16,102.37 176.88,103.08
             173.75,104.89 170.82,105.80 168.09,105.80
             166.18,105.80 164.38,105.01 162.70,103.44
             161.04,101.86 160.20,99.45 160.20,96.22
             160.20,92.74 161.66,89.78 164.59,87.34
             167.53,84.90 172.66,82.37 180.00,79.77
             180.00,79.77 180.00,96.92 180.00,96.92
             180.00,98.73 179.80,100.04 179.39,100.83 Z" />
</svg>
