<?xml version="1.0" encoding="UTF-8" standalone="no"?><!DOCTYPE svg PUBLIC "-//W3C//DTD SVG 1.1//EN" "http://www.w3.org/Graphics/SVG/1.1/DTD/svg11.dtd"><svg width="100%" height="100%" viewBox="0 0 790 246" version="1.1" xmlns="http://www.w3.org/2000/svg" xmlns:xlink="http://www.w3.org/1999/xlink" xml:space="preserve" xmlns:serif="http://www.serif.com/" style="fill-rule:evenodd;clip-rule:evenodd;stroke-linejoin:round;stroke-miterlimit:1.41421;"><g><path d="M263.869,107.997c-0.854,0.785 -1.357,1.503 -2.57,3.43l0.14,-6.145c-2.218,0.212 -4.433,0.285 -6.648,0.285l-6.934,0l0,1.718l6.146,0l0.072,6.79l0,18.3l-0.072,6.009l-6.146,0l0,1.715l18.873,0l0,-1.715l-5.506,0l-0.067,-6.009l0,-8.724c0.067,-4.718 0.067,-11.648 4.573,-14.794c2,-1.357 4.003,-1.503 4.857,-1.503c0.93,0 2.076,0.212 2.861,0.643c1.433,0.86 2.433,2.436 2.718,5.721c0.073,1.573 0.073,3.215 0.073,4.788l0,13.869l-0.073,6.009l-5.645,0l0,1.715l18.514,0l0,-1.715l-5.715,0l-0.079,-6.009l0,-8.579c0.146,-4.718 0.291,-10.293 4.009,-13.866c2.288,-2.145 4.646,-2.364 5.858,-2.364c0.572,0 2.075,-0.066 3.287,1.004c2.146,1.721 2.146,5.793 2.146,8.154c0.079,5.215 -0.07,10.436 -0.139,15.581l-0.07,6.079l-5.582,0l0,1.715l18.663,0l0,-1.715l-5.863,0l-0.073,-6.009l0.212,-16.511c0,-1.716 -0.069,-3.576 -0.569,-5.288c-0.643,-1.864 -1.57,-2.864 -2.215,-3.437c-2.57,-2.43 -6.076,-2.357 -7.076,-2.357c-2.288,0 -7.079,0.215 -10.794,4.933c-0.433,0.576 -0.93,1.358 -1.715,2.788c-0.506,-2.07 -0.788,-2.93 -1.436,-3.864c-2.573,-3.857 -7.221,-4 -8.579,-4c-1.285,0 -6.003,0.212 -9.436,3.358Z" style="fill:#0098db;fill-rule:nonzero;"/><path d="M320.274,111.357c-3.215,4.722 -3.288,9.294 -3.288,11.367c0,7.936 3.003,12.008 5.579,14.306c3.218,2.851 6.645,3.784 10.863,3.784c2.506,0 8.439,0 12.657,-5.863c1.146,-1.573 1.715,-3.003 2.5,-4.785l-1.854,-0.648c-0.785,2.145 -1.073,2.715 -1.791,3.718c-1.003,1.496 -4,5.433 -9.509,5.433c-1.212,0 -5.43,-0.358 -7.864,-3.937c-2.642,-3.933 -2.575,-9.717 -2.575,-14.151l23.739,0c-0.073,-0.86 -0.146,-3.286 -1,-5.79c-2.073,-6.221 -7.649,-10.079 -14.227,-10.079c-2.437,0 -9.082,0.639 -13.23,6.645Zm8.512,-3.43c1.639,-1.288 3.212,-1.357 4.003,-1.357c1.142,0 2.218,0.284 3.218,0.788c4.003,2.072 4.145,7.433 4.218,11.148l-15.157,0.076c0.288,-3.507 0.572,-8.291 3.718,-10.655Z" style="fill:#0098db;fill-rule:nonzero;"/><path d="M357.667,96.13l-0.143,9.44l-5.506,0l0,2l5.506,0l-0.142,24.305c0,0.288 -0.146,2.788 0.5,4.433c1.142,3.361 4.503,4.218 7.648,4.218c1.434,0 5.361,0.073 7.857,-3.503c0.44,-0.572 0.791,-1.139 1.437,-2.503l-1.5,-0.712c-0.288,0.57 -1.718,4.215 -5.079,4.215c-0.788,0 -1.5,-0.212 -2.145,-0.642c-1.782,-1.354 -1.782,-4 -1.782,-6.006l0.07,-23.805l7.578,0l0,-2l-7.578,0l0.142,-9.44l-6.863,0Z" style="fill:#0098db;fill-rule:nonzero;"/><path d="M381.618,111.357c-3.218,4.722 -3.291,9.294 -3.291,11.367c0,7.936 3.006,12.008 5.582,14.306c3.218,2.851 6.648,3.784 10.863,3.784c2.5,0 8.439,0 12.661,-5.863c1.139,-1.573 1.711,-3.003 2.496,-4.785l-1.86,-0.648c-0.782,2.145 -1.073,2.715 -1.788,3.718c-1,1.496 -4.003,5.433 -9.506,5.433c-1.215,0 -5.43,-0.358 -7.867,-3.937c-2.639,-3.933 -2.569,-9.717 -2.569,-14.151l23.736,0c-0.076,-0.86 -0.146,-3.286 -1.006,-5.79c-2.073,-6.221 -7.646,-10.079 -14.224,-10.079c-2.43,0 -9.082,0.639 -13.227,6.645Zm8.506,-3.43c1.645,-1.288 3.221,-1.357 4.012,-1.357c1.136,0 2.209,0.284 3.212,0.788c4,2.072 4.148,7.433 4.218,11.148l-15.154,0.076c0.285,-3.507 0.569,-8.291 3.712,-10.655Z" style="fill:#0098db;fill-rule:nonzero;"/><path d="M432.377,104.567c-4.36,0 -9.078,1.86 -12.081,5.148c-1.858,2.069 -4.573,6.364 -4.573,13.227c0,3.361 0.636,5.572 1.07,6.788c1.645,4.648 5.221,8.581 10.012,10.224c0.857,0.288 2.712,0.787 5.218,0.787c7.999,0 12.081,-5.006 13.654,-7.363c2.715,-4.36 2.86,-8.863 2.86,-10.654c0,-6.794 -2.933,-13.727 -9.369,-16.727c-2.557,-1.187 -4.838,-1.446 -6.234,-1.446c-0.206,0 -0.392,0.006 -0.557,0.016Zm-7.718,28.381c-0.857,-3.361 -0.857,-9.652 -0.857,-9.797c0,-2.282 0.136,-5.861 0.427,-8.147c0.927,-6.934 4.433,-8.577 7.863,-8.65c1,0 4.573,0.073 6.506,3.073c1.361,2.142 1.5,5.218 1.57,5.791c0.285,2.503 0.361,5.079 0.361,7.575c0,4.721 -0.285,8.512 -0.716,10.231c-1.43,5.426 -5.506,5.857 -7.651,5.857c-5.572,0 -7.006,-4 -7.503,-5.933Z" style="fill:#0098db;fill-rule:nonzero;"/><path d="M484.494,106.854c-8.294,4.285 -8.794,13.509 -8.794,16.158c0,9.721 6.221,17.729 16.442,17.729c7.509,0 11.227,-4.145 12.8,-6.578c1,-1.497 1.715,-3.43 2.358,-5.142l-1.716,-0.503c-0.072,0.357 -0.712,2.36 -1.575,3.933c-0.997,1.712 -4.073,6.072 -10.152,6.072c-5.575,0 -8.36,-3.933 -9.575,-8.863c-0.646,-2.857 -0.646,-6.148 -0.646,-6.933c0,-6.367 1.004,-10.363 2.649,-12.658c1.997,-2.93 5.076,-3.291 6.291,-3.291c1.073,0 4.503,0.292 5.93,3.576c0.503,1.364 0.503,2.864 0.503,3.364c0,1.357 -0.142,3.215 1.139,4.142c0.788,0.576 1.934,0.576 2.221,0.576c2.146,0.073 3.143,-1.285 3.503,-1.999c0.216,-0.504 0.285,-1 0.285,-1.574c0,-2.718 -1.996,-5.148 -2.427,-5.578c-0.218,-0.358 -0.503,-0.57 -0.861,-0.855c-3.718,-3.294 -8.933,-3.506 -10.293,-3.506c-1.431,0 -4.649,0.07 -8.082,1.93Z" style="fill:#0098db;fill-rule:nonzero;"/><path d="M529.535,104.567c-4.357,0 -9.079,1.86 -12.082,5.148c-1.863,2.069 -4.578,6.364 -4.578,13.227c0,3.361 0.646,5.572 1.078,6.788c1.637,4.648 5.216,8.581 10.01,10.224c0.854,0.288 2.715,0.787 5.215,0.787c8.009,0 12.085,-5.006 13.66,-7.363c2.712,-4.36 2.851,-8.863 2.851,-10.654c0,-6.794 -2.93,-13.727 -9.36,-16.727c-2.556,-1.187 -4.841,-1.446 -6.24,-1.446c-0.205,0 -0.392,0.006 -0.554,0.016Zm-7.725,28.381c-0.85,-3.361 -0.85,-9.652 -0.85,-9.797c0,-2.282 0.146,-5.861 0.423,-8.147c0.931,-6.934 4.434,-8.577 7.868,-8.65c1,0 4.572,0.073 6.506,3.073c1.354,2.142 1.503,5.218 1.572,5.791c0.288,2.503 0.361,5.079 0.361,7.575c0,4.721 -0.291,8.512 -0.722,10.231c-1.427,5.426 -5.502,5.857 -7.648,5.857c-5.572,0 -7.006,-4 -7.51,-5.933Z" style="fill:#0098db;fill-rule:nonzero;"/><path d="M577.01,104.997c-5.433,0 -8.582,2.354 -10.085,4.076c-0.715,0.715 -1.645,2.069 -2.215,2.93l0.146,-6.721c-2.288,0.145 -4.582,0.288 -6.864,0.288l-6.721,0l0,1.715l6.222,0l0.066,6.291l0,19.229l-0.066,5.579l-6.222,0l0,1.715l19.161,0l0,-1.715l-5.864,0l-0.146,-5.579l0,-9.433c0.146,-4.009 0.288,-8.224 2.719,-11.654c0.642,-0.93 3.145,-4.291 7.224,-4.291c4.579,0 5.069,4.076 5.145,7.579c0,1.569 0.07,3.142 0.07,4.718l0,13.081l-0.146,5.579l-5.639,0l0,1.715l18.512,0l0,-1.715l-5.576,0l-0.073,-5.579l0,-11.154c0.219,-6.503 0.364,-10.006 -1.354,-12.797c-2.212,-3.787 -6.807,-3.857 -8.158,-3.857c-0.047,0 -0.098,0 -0.136,0Z" style="fill:#0098db;fill-rule:nonzero;"/><path d="M601.312,96.13l-0.139,9.44l-5.506,0l0,2l5.506,0l-0.142,24.305c0,0.288 -0.143,2.788 0.497,4.433c1.145,3.361 4.502,4.218 7.657,4.218c1.424,0 5.358,0.073 7.861,-3.503c0.427,-0.572 0.784,-1.139 1.424,-2.503l-1.497,-0.712c-0.285,0.57 -1.722,4.215 -5.076,4.215c-0.788,0 -1.5,-0.212 -2.145,-0.642c-1.788,-1.354 -1.788,-4 -1.788,-6.006l0.073,-23.805l7.575,0l0,-2l-7.575,0l0.142,-9.44l-6.867,0Z" style="fill:#0098db;fill-rule:nonzero;"/><path d="M634.491,110.573c-0.503,0.93 -1.01,1.927 -1.507,2.93l0.146,-8.221c-2.218,0.148 -4.433,0.291 -6.648,0.291l-6.579,0l0,1.712l5.936,0l0.14,5.936l0,19.154l-0.14,6.006l-5.936,0l0,1.721l19.157,0l0,-1.721l-6.076,0l-0.139,-6.006l0,-5.36c0.139,-5.073 0.215,-10.009 2.573,-14.579c1.573,-3.079 3.576,-5.085 5.075,-5.151c0.425,0 0.712,0.142 0.861,0.212c1.067,0.436 1,1.576 1,1.93c0,1.073 -0.288,2.142 -0.288,3.218c-0.069,3.003 2.503,3.721 3.506,3.721c1.715,0 3.712,-1.075 3.712,-4.721c0,-0.927 -0.282,-4.791 -3.645,-6.215c-1.212,-0.575 -2.358,-0.575 -2.861,-0.575c-2.569,0 -5.642,1 -8.287,5.718Z" style="fill:#0098db;fill-rule:nonzero;"/><path d="M670.017,104.567c-4.361,0 -9.075,1.86 -12.075,5.148c-1.864,2.069 -4.582,6.364 -4.582,13.227c0,3.361 0.645,5.572 1.076,6.788c1.642,4.648 5.221,8.581 10.005,10.224c0.861,0.288 2.715,0.787 5.225,0.787c7.999,0 12.075,-5.006 13.651,-7.363c2.718,-4.36 2.86,-8.863 2.86,-10.654c0,-6.794 -2.93,-13.727 -9.366,-16.727c-2.554,-1.187 -4.842,-1.446 -6.234,-1.446c-0.209,0 -0.392,0.006 -0.56,0.016Zm-7.718,28.381c-0.858,-3.361 -0.858,-9.652 -0.858,-9.797c0,-2.282 0.14,-5.861 0.431,-8.147c0.927,-6.934 4.427,-8.577 7.86,-8.65c1.006,0 4.579,0.073 6.509,3.073c1.358,2.142 1.503,5.218 1.57,5.791c0.288,2.503 0.36,5.079 0.36,7.575c0,4.721 -0.288,8.512 -0.715,10.231c-1.427,5.426 -5.509,5.857 -7.651,5.857c-5.579,0 -7.006,-4 -7.506,-5.933Z" style="fill:#0098db;fill-rule:nonzero;"/><path d="M698.828,89.628l-7.006,0l0,1.639l6.222,0l0.069,6.009l0,34.457l-0.069,6.651l-6.222,0l0,1.718l19.018,0l0,-1.718l-5.575,0l-0.073,-6.651l0,-34.457l0.073,-8.009c-2.143,0.218 -4.288,0.288 -6.437,0.361Z" style="fill:#0098db;fill-rule:nonzero;"/><rect x="234.048" y="103.456" width="1.896" height="91.333" style="fill:#0098db;"/><rect x="461.483" y="51.361" width="1.889" height="91.33" style="fill:#0098db;"/><rect x="728.678" y="67.525" width="1.895" height="91.336" style="fill:#0098db;"/><rect x="69.356" y="112.879" width="11.579" height="6" style="fill:#0098db;"/><rect x="105.62" y="112.879" width="11.461" height="6" style="fill:#0098db;"/><path d="M105.613,103.307l0.004,0.753l0,5.247l11.584,0c0.089,-1.981 0.247,-4 0.526,-6l-12.114,0Z" style="fill:#0098db;fill-rule:nonzero;"/><path d="M69.353,103.307l0,6l11.639,0c0.053,-1.918 0.142,-3.959 0.364,-6l-12.003,0Z" style="fill:#0098db;fill-rule:nonzero;"/><path d="M85.384,86.865c-1.408,1.291 -2.225,2.459 -4.212,5.617l0.231,-10.06c-3.626,0.352 -7.25,0.469 -10.879,0.469l-11.344,0l0,2.803l10.056,0l0.117,11.114l0,2.923l12.55,0c0.911,-4.566 2.743,-8.825 6.522,-11.458c3.275,-2.224 6.544,-2.462 7.949,-2.462c1.525,0 3.398,0.355 4.686,1.054c2.335,1.408 3.974,3.978 4.44,9.357c0.053,1.155 0.075,2.332 0.094,3.509l12.81,0c0.892,-3.626 2.43,-7.018 5.23,-9.705c3.741,-3.512 7.604,-3.86 9.592,-3.86c0.933,0 3.645,-0.117 5.632,1.633c3.12,2.493 4.867,8.018 5.231,11.932l13.866,0c0.737,-4.211 1.921,-7.325 3.465,-9.47c3.272,-4.801 8.303,-5.383 10.294,-5.383c1.756,0 7.366,0.471 9.705,5.848c0.819,2.224 0.819,4.68 0.819,5.496c0,2.228 -0.231,5.266 1.874,6.788c1.284,0.936 3.161,0.936 3.626,0.936c3.509,0.114 5.148,-2.104 5.734,-3.278c0.348,-0.816 0.465,-1.639 0.465,-2.572c0,-4.443 -3.278,-8.424 -3.975,-9.126c-0.354,-0.58 -0.819,-0.934 -1.408,-1.405c-6.082,-5.374 -14.622,-5.728 -16.84,-5.728c-2.339,0 -7.604,0.117 -13.221,3.158c-2.266,1.171 -4.145,2.582 -5.756,4.114c-1.123,-1.731 -2.49,-2.991 -3.231,-3.649c-4.212,-3.977 -10.195,-3.86 -11.841,-3.86c-3.737,0 -11.575,0.354 -17.66,8.072c-0.699,0.937 -1.519,2.225 -2.807,4.566c-0.819,-3.395 -1.288,-4.797 -2.341,-6.319c-4.212,-6.319 -11.813,-6.55 -14.034,-6.55c-2.105,0 -9.832,0.351 -15.439,5.496Z" style="fill:#0098db;fill-rule:nonzero;"/><path d="M144.158,103.307c0,2.199 -0.003,4.114 -0.003,6l12.971,0c0.035,-2.18 0.155,-4.168 0.348,-6l-13.316,0Z" style="fill:#0098db;fill-rule:nonzero;"/><path d="M144.187,112.883c0.088,2.056 0.31,4.069 0.731,5.993l12.635,0c-0.291,-2.282 -0.399,-4.456 -0.44,-5.993l-12.926,0Z" style="fill:#0098db;fill-rule:nonzero;"/><path d="M69.356,122.455l0,4.3l-0.12,9.825l-10.056,0l0,2.81l30.881,0l0,-2.81l-9.006,0l-0.12,-9.825l0,-4.3l-11.579,0Z" style="fill:#0098db;fill-rule:nonzero;"/><path d="M105.62,122.455l0,4.3l-0.12,9.825l-9.237,0l0,2.81l21.081,0l0,-2.81l-0.146,0l-0.114,-9.825l0,-4.3l-11.464,0Z" style="fill:#0098db;fill-rule:nonzero;"/><path d="M190.431,126.875c-1.639,2.807 -6.671,9.94 -16.613,9.94c-9.069,0 -13.629,-6.354 -15.635,-14.36l-12.291,0c3.598,10.509 12.484,17.989 25.119,17.989c12.281,0 18.366,-6.787 20.939,-10.762c1.639,-2.462 2.806,-5.617 3.86,-8.427l-2.807,-0.813c-0.117,0.579 -1.17,3.858 -2.572,6.433Z" style="fill:#0098db;fill-rule:nonzero;"/></g></svg>