<?xml version="1.0" encoding="UTF-8"?>
<svg id="Logo" xmlns="http://www.w3.org/2000/svg" version="1.1" viewBox="0 0 600 114">
  <!-- Generator: Adobe Illustrator 29.3.1, SVG Export Plug-In . SVG Version: 2.1.0 Build 151)  -->
  <defs>
    <style>
      .st0 {
        fill: #fff;
      }

      .st1 {
        fill: #00228c;
        fill-rule: evenodd;
      }

      .st2 {
        isolation: isolate;
      }

      .st3 {
        fill: #6986e1;
      }
    </style>
  </defs>
  <g id="netitwork">
    <path d="M49.3,97.9v-34.5c0-3.3-.2-6.5-.7-9.8-.3-2.3-1.3-4.5-2.7-6.4-1.5-1.7-3.6-2.9-5.8-3.5-3.2-.8-6.6-1.2-9.9-1.1-3.7-.1-7.4.3-11,1.2-2.5.6-4.8,1.8-6.7,3.5-1.6,1.5-2.8,3.4-3.4,5.5-.7,2.3-1,4.8-.9,7.2v37.9H0v-62.2h8.2v10.4c.5-1.7,1.4-3.2,2.6-4.6,1.1-1.3,2.4-2.4,3.8-3.3,1.4-.9,2.9-1.7,4.5-2.2,1.6-.5,3.3-1,4.9-1.3,1.6-.3,3.2-.5,4.7-.6h4.2c3.2,0,6.3.2,9.4.8,2.4.5,4.6,1.3,6.7,2.6,1.8,1,3.3,2.5,4.4,4.2,1.2,1.8,2,3.7,2.6,5.7.7,2.4,1.1,4.8,1.2,7.3.2,2.7.3,5.6.3,8.8v34.4h-8.3Z"/>
    <path d="M97.3,99c-4.7,0-9.4-.4-13.9-1.4-7.3-1.5-13-7.1-14.6-14.3-1.2-4.8-1.7-9.8-1.6-14.8-.1-5.7.4-11.3,1.6-16.9.8-3.9,2.6-7.6,5.2-10.6,2.5-2.7,5.8-4.6,9.3-5.5,4.6-1.1,9.3-1.7,13.9-1.6,3.4,0,6.8.3,10.2,1.1,2.6.6,5.1,1.6,7.4,3,2,1.3,3.7,3,5,5,1.3,1.9,2.3,3.9,3,6,.8,2.4,1.3,5,1.5,7.5.3,3,.4,6,.4,9l-.7,3.4h-48.6c0,3.8.3,7.7,1.1,11.4.5,2.5,1.8,4.8,3.7,6.5,1.9,1.7,4.3,2.8,6.8,3.2,3.4.4,6.9.6,10.4.6,3.1,0,6.2-.2,9.3-.6,2.1-.1,4.1-.6,6-1.5,1.3-.6,2.4-1.7,3-3,.6-1.6.9-3.3.9-5h8.2c0,2.9-.4,5.8-1.4,8.6-.9,2.3-2.5,4.3-4.6,5.7-2.6,1.6-5.5,2.7-8.5,3.2-4.3.8-8.7,1.1-13,1ZM97.3,42.5c-2.7,0-5.2,0-7.4.2-1.9.1-3.8.4-5.6.9-1.5.4-2.9,1.1-4.1,2.1-1.1.9-2,2-2.8,3.2-.8,1.6-1.3,3.4-1.5,5.2-.4,2.7-.5,5.4-.5,8.1h41.1c0-3.3-.3-6.7-1-9.9-.6-2.3-1.8-4.3-3.4-6-1.7-1.6-3.7-2.7-6-3.2-2.9-.6-5.8-.8-8.7-.7h0Z"/>
    <path d="M183.6,70.2c0,4.4-.3,8.9-1,13.3-.5,3.1-1.6,6-3.4,8.5-1.6,2.1-3.8,3.7-6.4,4.5-3.1,1-6.4,1.4-9.7,1.4-3.2,0-6.3-.3-9.4-1.1-2.4-.6-4.5-2-6.2-3.8-1.7-1.9-2.9-4.3-3.5-6.8-.8-3.5-1.1-7.2-1-10.8v-31.1h-10.1v-8.6h10.1v-16.9h8.2v16.9h31v8.6h-31v31.1c0,2.7.1,5.3.6,7.9.2,1.5.9,3,2,4.1,1,.9,2.3,1.4,3.6,1.5,1.5,0,3.3.2,5.5.2h4.6c1.2,0,2.4-.3,3.5-.7,1-.4,1.9-.9,2.6-1.7.8-1,1.4-2.1,1.7-3.3.5-1.8.9-3.7,1-5.6.2-2.1.3-4.8.3-7.9h6.9Z"/>
    <path d="M397.5,97.8h-10.9l-15-51-15,51h-11.2l-19.2-62.3h9.6l15,54.4,16.4-54.4h8.5l16.2,54.5,15.2-54.3h9.6l-19.2,62.1Z"/>
    <path d="M420.6,66c-.1-5.3.4-10.5,1.6-15.7.8-3.7,2.6-7.1,5.2-9.9,2.6-2.5,5.8-4.3,9.3-5.1,9.2-2,18.7-2,27.9,0,3.5.8,6.8,2.6,9.3,5.1,2.6,2.8,4.4,6.2,5.2,9.9,1.2,5.1,1.8,10.4,1.7,15.7.1,5.4-.4,10.8-1.7,16-.8,3.8-2.6,7.3-5.2,10.2-2.5,2.6-5.8,4.5-9.3,5.3-9.2,2.1-18.7,2.1-27.9,0-3.5-.9-6.8-2.7-9.3-5.3-2.6-2.9-4.4-6.3-5.2-10.1-1.2-5.3-1.8-10.7-1.6-16.1ZM428.8,66c0,3.4,0,6.4.3,9,.1,2.2.5,4.4,1.1,6.5.5,1.6,1.3,3.1,2.3,4.4,1.1,1.2,2.4,2.1,4,2.7,1.9.8,3.9,1.2,6,1.4,2.8.3,5.5.4,8.3.4,2.8,0,5.2,0,7.3-.2,1.9-.1,3.8-.5,5.6-1.1,1.5-.5,2.9-1.3,4.1-2.4,1.2-1.2,2.2-2.7,2.8-4.3.8-2.2,1.3-4.4,1.5-6.7.4-3.2.5-6.4.5-9.6,0-3.1-.1-6.3-.5-9.4-.2-2.2-.8-4.4-1.5-6.5-.6-1.6-1.5-3-2.8-4.1-1.2-1-2.6-1.8-4.1-2.3-1.8-.6-3.7-.9-5.6-1-2.2,0-4.6-.2-7.3-.2s-5.2,0-7.3.2c-1.9,0-3.8.4-5.6,1-1.5.5-2.9,1.2-4.1,2.3-1.2,1.2-2.2,2.6-2.8,4.1-.8,2.1-1.3,4.3-1.5,6.5-.4,3.1-.6,6.2-.6,9.3h0Z"/>
    <path d="M532.9,55.9c0-2.2-.1-4.3-.4-6.4-.2-1.6-1-3-2.1-4.1-1.4-1.2-3.1-1.9-4.9-2.2-3-.5-6-.7-9-.6-3,0-6.1.3-9,1.2-2.1.7-3.9,1.8-5.4,3.4-1.3,1.5-2.3,3.3-2.7,5.3-.5,2.2-.7,4.5-.7,6.8v38.5h-8.2v-62.2h8.2v9.9c.4-1.3.9-2.6,1.6-3.7.9-1.5,2.1-2.8,3.5-3.8,1.8-1.3,3.9-2.3,6-3,6.5-1.6,13.3-1.6,19.8.2,2.4.8,4.6,2.3,6.3,4.2,1.5,2,2.6,4.4,3,6.9.5,3.1.8,6.3.8,9.5h-6.6Z"/>
    <path d="M545.2,15h8.2v45.3h2.7l30.2-24.6h12.3l-34.9,29,36.3,33.2h-12.3l-31.5-29.8h-2.7v29.8h-8.2V15Z"/>
  </g>
  <g id="icon">
    <rect id="bg" class="st3" x="201.2" y="2.7" width="108.6" height="108.6"/>
    <path id="grid" class="st1" d="M219.5,2.7c-.5,4.3-.7,8.7-.8,13.1-2.1.8-3.8,2.3-5,4.1-4.1-.9-8.3-1.7-12.5-2.3v8.3c3.7.6,7.3,1.2,11,2.1.8,4.1,4,7.4,8.1,8.4,2.8,17.3,8.8,34,17.5,49.3-1.7,2-2.5,4.5-2.5,7.1-11.2,2.5-22.6,3.7-34.1,3.6v8.2c12.5.1,25.1-1.3,37.3-4.2,2.5,2.5,6,3.6,9.5,3,.5,0,.9-.2,1.3-.3,2.2,3,4.5,5.6,6.8,8.3h11c-.3-.3-.6-.6-.9-1h0c-3.8-3.9-7.3-8-10.5-12.3.7-1.3,1.1-2.7,1.3-4.1,10.6-5.4,20.3-12.3,28.8-20.6,1.5.4,3.1.5,4.6.2,1.1-.2,2.2-.6,3.2-1.1,6.3,7,11.7,14.8,16.2,23v-15.7c-3.1-4.6-6.6-8.9-10.3-13.1h0l-.8-.7c.5-1.7.7-3.5.4-5.2-.1-.7-.3-1.4-.6-2.1,4.1-5.4,7.9-11.1,11.2-17.1v-18.9c-4.4,10.7-10.1,20.7-17,30-1.9-.8-4-1.1-6-.8-.8.2-1.6.4-2.4.7-15.1-12-32.3-21.3-50.6-27.3,0-.5,0-1,0-1.4-.6-3.7-3.1-6.8-6.6-8.2,0-4.4.1-8.7.5-13.1h-8.2ZM231,33c17.2,5.6,33.4,14.2,47.6,25.4-.8,1.9-1,4-.7,6,.1,1.3.5,2.6,1.1,3.7-7.3,7-15.6,12.9-24.6,17.7-2.3-2.8-5.9-4.3-9.5-4-8.3-14.5-13.9-30.3-16.6-46.7,1-.5,1.9-1.2,2.7-2.1Z"/>
    <g id="frame">
      <path d="M307,5.4v103.1h-103V5.4h103.1M312.5,0h-114v114h114V0Z"/>
    </g>
    <g class="st2">
      <path class="st0" d="M224.3,77.2v-40.4h9.4v40.4h-9.4Z"/>
      <path class="st0" d="M273,44v33.2h-9.3v-33.2h-18.5v-7.2h46.6v7.2h-18.7Z"/>
    </g>
  </g>
</svg>