<svg width="234" height="48" viewBox="0 0 234 48" fill="none" xmlns="http://www.w3.org/2000/svg">
<g clip-path="url(#clip0_166_1402)">
<path d="M210.864 40.3873C210.864 38.7363 211.536 37.758 212.79 37.758C214.043 37.758 214.716 38.7363 214.716 40.3873C214.716 42.0076 214.043 42.986 212.79 42.986C211.536 42.986 210.864 42.0076 210.864 40.3873ZM212.912 47.8471C214.838 47.8471 217.009 47.0217 217.009 44.5147V36.3516H214.685V38.186C214.318 37.0853 213.401 36.1682 211.934 36.1682C209.916 36.1682 208.51 37.8803 208.51 40.3873C208.51 42.8637 209.885 44.6064 211.934 44.6064C213.218 44.6064 214.227 43.842 214.685 42.8025V44.5758C214.685 45.7376 213.921 46.2879 212.912 46.2879C212.087 46.2879 211.383 45.921 211.231 45.1261H208.876C209.09 46.9911 210.955 47.8471 212.912 47.8471ZM202.364 44.6675H204.718V40.3567C204.718 38.9503 205.422 38.4611 206.859 38.4611H207.47V36.1682C205.88 36.1682 205.024 37.2382 204.718 38.5223V36.3516H202.395V44.6675H202.364ZM195.149 44.851C196.617 44.851 197.381 44.0255 197.748 43.0471V44.6981H200.041V36.3822H197.717V41.0904C197.717 42.5274 197.197 43.2306 196.219 43.2306C195.271 43.2306 194.721 42.558 194.721 41.121V41.0904V36.3822H192.367V41.5796V41.6102C192.428 43.4446 193.223 44.851 195.149 44.851ZM184.387 40.5096C184.387 38.7975 185.06 37.758 186.313 37.758C187.597 37.758 188.27 38.7975 188.27 40.5096C188.27 42.1911 187.597 43.2306 186.313 43.2306C185.06 43.2611 184.387 42.1911 184.387 40.5096ZM187.231 44.851C189.279 44.851 190.655 43.0166 190.655 40.5401C190.655 38.0331 189.279 36.1987 187.231 36.1987C185.763 36.1987 184.846 37.1771 184.479 38.2471V33.0497H182.155V44.6675H184.479V42.986C184.907 44.0561 185.947 44.851 187.231 44.851ZM176.469 44.851C178.67 44.851 180.382 43.9032 180.382 42.2217C180.382 40.8764 179.557 40.1121 177.814 39.7452L176.346 39.4089C175.49 39.2255 175.001 39.042 175.001 38.5529C175.001 38.0331 175.643 37.758 176.377 37.758C177.05 37.758 177.661 38.0331 177.845 38.5529H180.199C179.832 36.9631 178.273 36.1682 176.377 36.1682C174.39 36.1682 172.769 37.1465 172.769 38.7363C172.769 39.9898 173.625 40.693 175.215 41.0599L176.683 41.3962C177.814 41.6408 178.15 41.8853 178.15 42.4051C178.15 42.9554 177.6 43.2917 176.591 43.2917C175.857 43.2917 175.154 43.0166 175.001 42.1911H172.647C172.892 43.9643 174.42 44.851 176.469 44.851ZM164.759 40.3873C164.759 38.7363 165.432 37.758 166.716 37.758C167.969 37.758 168.642 38.7363 168.642 40.3873C168.642 42.0076 167.969 42.986 166.716 42.986C165.432 42.986 164.759 42.0076 164.759 40.3873ZM166.808 47.8471C168.734 47.8471 170.874 47.0217 170.874 44.5147V36.3516H168.55V38.186C168.183 37.0853 167.266 36.1682 165.799 36.1682C163.75 36.1682 162.375 37.8803 162.375 40.3873C162.375 42.8637 163.75 44.6064 165.799 44.6064C167.083 44.6064 168.092 43.842 168.55 42.8025V44.5758C168.55 45.7376 167.786 46.2879 166.777 46.2879C165.952 46.2879 165.248 45.921 165.096 45.1261H162.741C162.986 46.9911 164.851 47.8471 166.808 47.8471ZM155.557 44.851C157.024 44.851 157.789 44.0255 158.155 43.0471V44.6981H160.448V36.3822H158.125V41.0904C158.125 42.5274 157.605 43.2306 156.627 43.2306C155.679 43.2306 155.129 42.558 155.129 41.121V41.0904V36.3822H152.775V41.5796V41.6102C152.836 43.4446 153.631 44.851 155.557 44.851ZM143.725 39.5006L145.62 33.5083L147.516 39.5006H143.725ZM139.536 44.6675H142.074L143.052 41.549H148.127L149.106 44.6675H151.643L147.791 33.0497H143.389L139.536 44.6675Z" fill="#FF0350"/>
<path d="M227.801 23.2051C228.015 21.921 228.688 21.3401 229.636 21.3401C230.614 21.3401 231.317 22.0433 231.439 23.2051H227.801ZM229.636 28.4025C231.623 28.4025 233.09 27.5159 233.641 25.7732H231.287C230.981 26.4459 230.553 26.8127 229.636 26.8127C228.688 26.8127 227.954 26.1707 227.801 24.7643H233.763C233.794 24.5197 233.824 24.3057 233.824 24.1223C233.824 21.493 232.204 19.7503 229.636 19.7503C227.129 19.7503 225.417 21.5236 225.417 24.0611C225.417 26.5987 227.037 28.4025 229.636 28.4025ZM221.228 28.2191H223.582V16.6013H221.228V28.2191ZM214.043 28.4025C215.511 28.4025 216.275 27.5771 216.642 26.5987V28.2497H218.966V19.9338H216.611V24.6726C216.611 26.079 216.092 26.7822 215.144 26.7822C214.166 26.7822 213.646 26.1096 213.646 24.6726V24.642V19.9032H211.292V25.1312V25.1618C211.292 26.9962 212.117 28.4025 214.043 28.4025ZM201.447 28.2191H203.801V23.5108C203.801 22.0433 204.352 21.3707 205.33 21.3707C206.308 21.3707 206.859 22.0433 206.859 23.4497V23.4803V28.1885H209.182V22.9605V22.9299C209.182 21.0955 208.357 19.6892 206.431 19.6892C204.963 19.6892 204.168 20.5452 203.771 21.5541V16.5401H201.447V28.2191ZM195.669 28.4025C197.748 28.4025 199.399 27.3019 199.796 25.2841H197.442C197.197 26.2624 196.617 26.8433 195.669 26.8433C194.446 26.8433 193.773 25.8344 193.773 24.0917C193.773 22.4102 194.446 21.3707 195.669 21.3707C196.617 21.3707 197.167 22.0739 197.35 22.9299H199.704C199.368 21.0038 197.839 19.7809 195.669 19.7809C193.131 19.7809 191.389 21.493 191.389 24.0917C191.358 26.6599 193.101 28.4025 195.669 28.4025ZM185.977 28.4025C188.209 28.4025 189.89 27.4548 189.89 25.7732C189.89 24.428 189.065 23.6637 187.322 23.2968L185.855 22.9911C184.999 22.8076 184.51 22.6242 184.51 22.135C184.51 21.6153 185.152 21.3401 185.885 21.3401C186.558 21.3401 187.169 21.6153 187.353 22.135H189.707C189.34 20.5452 187.781 19.7503 185.885 19.7503C183.898 19.7503 182.278 20.7287 182.278 22.3185C182.278 23.572 183.134 24.2752 184.724 24.642L186.191 24.9783C187.322 25.2229 187.659 25.4675 187.659 25.9873C187.659 26.5376 187.108 26.8433 186.099 26.8433C185.366 26.8433 184.662 26.5987 184.51 25.7427H182.155C182.4 27.5159 183.929 28.4025 185.977 28.4025ZM172.708 28.2191H175.032V23.5108C175.032 22.0433 175.613 21.3707 176.56 21.3707C177.539 21.3707 178.089 22.0433 178.089 23.4497V23.4803V28.1885H180.443V22.9605V22.9299C180.443 21.0955 179.618 19.6892 177.692 19.6892C176.224 19.6892 175.429 20.5452 175.032 21.5541V16.5401H172.708V28.2191ZM166.93 28.4025C169.009 28.4025 170.66 27.3019 171.057 25.2841H168.703C168.428 26.2624 167.878 26.8433 166.93 26.8433C165.738 26.8433 165.034 25.8344 165.034 24.0917C165.034 22.4102 165.707 21.3707 166.93 21.3707C167.908 21.3707 168.428 22.0739 168.642 22.9299H170.996C170.66 21.0038 169.131 19.7809 166.96 19.7809C164.423 19.7809 162.68 21.493 162.68 24.0917C162.619 26.6599 164.362 28.4025 166.93 28.4025ZM154.792 24.0611C154.792 22.349 155.465 21.3096 156.718 21.3096C158.003 21.3096 158.675 22.349 158.675 24.0611C158.675 25.7427 158.003 26.7822 156.718 26.7822C155.465 26.8127 154.792 25.7427 154.792 24.0611ZM156.749 28.4025C159.409 28.4025 161.09 26.6293 161.09 24.0917C161.09 21.5236 159.409 19.7503 156.749 19.7503C154.089 19.7503 152.438 21.5236 152.438 24.0917C152.408 26.5987 154.089 28.4025 156.749 28.4025ZM148.097 28.2191H150.512V16.6013H148.097V21.1873H143.205V16.6013H140.79V28.2191H143.205V23.358H148.097V28.2191Z" fill="#FF0350"/>
<path d="M223.949 6.75669C224.163 5.47261 224.836 4.86115 225.783 4.86115C226.762 4.86115 227.465 5.56433 227.587 6.75669H223.949ZM225.753 11.9541C227.74 11.9541 229.208 11.0675 229.758 9.29427H227.404C227.098 9.96688 226.67 10.3643 225.753 10.3643C224.805 10.3643 224.071 9.69172 223.918 8.31592H229.911C229.941 8.07134 229.972 7.85732 229.972 7.67389C229.972 5.04459 228.352 3.30191 225.783 3.30191C223.276 3.30191 221.564 5.07516 221.564 7.61274C221.534 10.1503 223.185 11.9541 225.753 11.9541ZM212.056 11.7707H214.41V7.03185C214.41 5.56433 214.961 4.92229 215.939 4.92229C216.917 4.92229 217.468 5.56433 217.468 7.00127V7.03185V11.7401H219.822V6.54268V6.5121C219.822 4.67771 218.996 3.27134 217.039 3.27134C215.572 3.27134 214.777 4.12739 214.41 5.13631V0.152866H212.087V11.7707H212.056ZM206.278 11.9541C208.357 11.9541 210.008 10.8535 210.405 8.83567H208.051C207.776 9.81401 207.256 10.3949 206.278 10.3949C205.055 10.3949 204.382 9.38599 204.382 7.64331C204.382 5.96178 205.055 4.92229 206.278 4.92229C207.256 4.92229 207.776 5.62548 207.959 6.5121H210.313C209.946 4.55542 208.448 3.33248 206.278 3.33248C203.74 3.33248 201.967 5.04459 201.967 7.64331C201.967 10.2115 203.71 11.9541 206.278 11.9541ZM196.586 11.9541C198.787 11.9541 200.499 11.0064 200.499 9.29427C200.499 7.94905 199.674 7.21529 197.931 6.81784L196.464 6.48153C195.608 6.29809 195.118 6.11465 195.118 5.62548C195.118 5.10573 195.761 4.83057 196.494 4.83057C197.167 4.83057 197.778 5.10573 197.962 5.62548H200.316C199.949 4.03567 198.359 3.24076 196.494 3.24076C194.507 3.24076 192.887 4.21911 192.887 5.80892C192.887 7.06242 193.743 7.79618 195.302 8.13248L196.769 8.46879C197.901 8.71338 198.237 8.98854 198.237 9.47771C198.237 10.028 197.687 10.3338 196.678 10.3338C195.944 10.3338 195.241 10.0892 195.088 9.23312H192.734C193.009 11.0675 194.538 11.9541 196.586 11.9541ZM188.606 2.35414H191.022V0.152866H188.606V2.35414ZM188.637 11.7707H190.96V3.45478H188.637V11.7707ZM178.701 11.7707H181.055V7.03185C181.055 5.56433 181.605 4.92229 182.583 4.92229C183.562 4.92229 184.112 5.56433 184.112 7.00127V7.03185V11.7401H186.466V6.54268V6.5121C186.466 4.67771 185.641 3.27134 183.684 3.27134C182.217 3.27134 181.422 4.12739 181.055 5.13631V3.45478H178.731V11.7707H178.701ZM168.795 11.7707H171.149V7.03185C171.149 5.56433 171.699 4.92229 172.678 4.92229C173.656 4.92229 174.206 5.56433 174.206 7.00127V7.03185V11.7401H176.561V6.54268V6.5121C176.561 4.67771 175.735 3.27134 173.778 3.27134C172.311 3.27134 171.516 4.12739 171.149 5.13631V0.152866H168.825V11.7707H168.795ZM162.986 11.9541C165.065 11.9541 166.716 10.8535 167.113 8.83567H164.759C164.515 9.81401 163.964 10.3949 162.986 10.3949C161.763 10.3949 161.09 9.38599 161.09 7.64331C161.09 5.96178 161.763 4.92229 162.986 4.92229C163.964 4.92229 164.484 5.62548 164.668 6.5121H167.022C166.655 4.55542 165.157 3.33248 162.986 3.33248C160.448 3.33248 158.706 5.04459 158.706 7.64331C158.706 10.2115 160.418 11.9541 162.986 11.9541ZM151.154 6.75669C151.368 5.47261 152.041 4.86115 152.989 4.86115C153.967 4.86115 154.67 5.56433 154.792 6.75669H151.154ZM152.989 11.9541C154.976 11.9541 156.443 11.0675 156.994 9.29427H154.639C154.364 9.96688 153.906 10.3643 153.019 10.3643C152.041 10.3643 151.338 9.69172 151.185 8.31592H157.146C157.177 8.07134 157.208 7.85732 157.208 7.67389C157.208 5.04459 155.587 3.30191 153.019 3.30191C150.512 3.30191 148.8 5.07516 148.8 7.61274C148.769 10.1503 150.39 11.9541 152.989 11.9541ZM143.419 11.7707H145.834V2.1707H149.442V0.152866H139.811V2.1707H143.419V11.7707Z" fill="#FF0350"/>
<path d="M107.068 28.372H116.148V44.0561L107.068 28.372ZM81.1108 19.5975V0.978344L91.842 19.5975H81.1108ZM41.2739 44.6675H50.6599V28.372H67.1694V19.5975H50.6599V0.152866H41.2739V44.6675ZM13.758 44.6675H23.1439V8.92739H36.6268V0.152866H0.275162V8.92739H13.758V44.6675ZM115.261 44.6675H125.503V42.2217C125.503 30.6955 118.532 19.628 105.111 19.628H101.962L94.8688 7.33758C92.056 2.47643 88.1427 0.183439 81.814 0.183439H71.7248V44.6981H81.1108V28.4025H96.9172L102.176 37.544C105.019 42.3745 108.932 44.6675 115.261 44.6675Z" fill="#FF0350"/>
</g>
<defs>
<clipPath id="clip0_166_1402">
<rect width="233.885" height="48" fill="white"/>
</clipPath>
</defs>
</svg>
