<svg xmlns="http://www.w3.org/2000/svg" width="60mm" height="60mm" viewBox="0 0 212.59843 212.59843" id="svg4258" version="1.1"><defs id="defs4260"></defs><metadata id="metadata4263"></metadata><g id="layer1" transform="translate(0,-839.76378)"><rect style="display:inline;fill:#262626;fill-opacity:1;enable-background:new" id="rect2985" width="152.04736" height="152.04736" x="30.333443" y="870.12421"></rect><rect style="display:inline;fill:#999999;enable-background:new" id="rect3763-3" width="13.822487" height="27.644886" x="44.155949" y="842.47919"></rect><rect style="display:inline;fill:#999999;enable-background:new" id="rect3763-6" width="13.822487" height="27.644974" x="71.800919" y="842.47913"></rect><rect style="display:inline;fill:#999999;enable-background:new" id="rect3763-7" width="13.822487" height="27.644974" x="99.445877" y="842.47913"></rect><rect style="display:inline;fill:#999999;enable-background:new" id="rect3763-5" width="13.822487" height="27.644974" x="127.0909" y="842.47913"></rect><rect style="display:inline;fill:#999999;enable-background:new" id="rect3763-35" width="13.822487" height="27.644974" x="154.73587" y="842.47919"></rect><rect style="display:inline;fill:#ff6000;fill-opacity:1;stroke:#ff6000;enable-background:new" id="rect3763-28" width="13.822487" height="69.112457" x="85.623428" y="911.59167"></rect><rect style="display:inline;fill:#ff6000;fill-opacity:1;stroke:#ff6000;enable-background:new" id="rect3763-75-97" width="27.644974" height="13.822487" x="99.445877" y="911.59167"></rect><rect style="display:inline;fill:#ff6000;fill-opacity:1;stroke:#ff6000;enable-background:new" id="rect3763-75-2-6" width="13.822487" height="13.822487" x="99.445877" y="939.23663"></rect><rect style="display:inline;fill:#ff6000;fill-opacity:1;stroke:#ff6000;enable-background:new" id="rect3763-12" width="13.822487" height="41.467476" x="127.0909" y="939.23663"></rect><rect style="display:inline;fill:#ff6000;fill-opacity:1;stroke:#ff6000;enable-background:new" id="rect3763-75-93" width="27.644974" height="13.822487" x="140.91336" y="939.23663"></rect><rect style="display:inline;fill:#ff6000;fill-opacity:1;stroke:#ff6000;enable-background:new" id="rect3763-75-2-9" width="13.822487" height="13.822487" x="140.91336" y="-980.7041" transform="scale(1,-1)"></rect><rect style="display:inline;fill:#ff6000;fill-opacity:1;stroke:#ff6000;enable-background:new" id="rect3763-12-4" width="13.822487" height="41.467453" x="154.73587" y="966.88165"></rect><rect style="display:inline;fill:#666666;fill-opacity:1;stroke:#666666;enable-background:new" id="rect3763-75-1" width="82.934929" height="13.822487" x="85.623428" y="883.94666"></rect><rect style="display:inline;fill:#666666;fill-opacity:1;stroke:#666666;enable-background:new" id="rect3763-75-1-5" width="13.822487" height="27.64497" x="154.73587" y="897.76917"></rect><rect style="display:inline;fill:#666666;fill-opacity:1;stroke:#666666;enable-background:new" id="rect3763-75-1-54" width="82.934929" height="13.822487" x="44.155949" y="994.52661"></rect><rect style="display:inline;fill:#666666;fill-opacity:1;stroke:#666666;stroke-width:0.98484814;enable-background:new" id="rect3763-75-1-5-7" width="13.822487" height="27.644945" x="44.155949" y="966.88165"></rect><rect style="display:inline;fill:#ff6000;fill-opacity:1;stroke:#ff6000;enable-background:new" id="rect3763-75-93-0" width="27.644974" height="13.822487" x="127.0909" y="994.52661"></rect><rect style="display:inline;fill:#ff6000;fill-opacity:1;stroke:#ff6000;enable-background:new" id="rect3763-75-97-9" width="27.644974" height="13.822487" x="99.445877" y="966.88165"></rect><rect style="display:inline;fill:#ff6000;fill-opacity:1;stroke:#ff6000;stroke-opacity:1;enable-background:new" id="rect3763-28-3" width="13.822487" height="69.112457" x="44.155949" y="883.94666"></rect><rect style="display:inline;fill:#ff6000;fill-opacity:1;stroke:#ff6000;enable-background:new" id="rect3763-75-97-6" width="27.644974" height="13.822487" x="57.978458" y="883.94666"></rect><rect style="display:inline;fill:#ff6000;fill-opacity:1;stroke:#ff6000;stroke-opacity:1;enable-background:new" id="rect3763-75-2-6-0" width="13.822487" height="13.822487" x="57.978458" y="911.59167"></rect><rect style="display:inline;fill:#ff6000;fill-opacity:1;stroke:#ff6000;enable-background:new" id="rect3763-75-97-9-6" width="27.644974" height="13.822487" x="57.978458" y="939.23663"></rect><rect style="display:inline;fill:#999999;enable-background:new" id="rect3763-3-2" width="13.822487" height="27.644886" x="44.155949" y="1022.1718"></rect><rect style="display:inline;fill:#999999;enable-background:new" id="rect3763-6-6" width="13.822487" height="27.644974" x="71.800919" y="1022.1717"></rect><rect style="display:inline;fill:#999999;enable-background:new" id="rect3763-7-1" width="13.822487" height="27.644974" x="99.445877" y="1022.1717"></rect><rect style="display:inline;fill:#999999;enable-background:new" id="rect3763-5-8" width="13.822487" height="27.644974" x="127.0909" y="1022.1717"></rect><rect style="display:inline;fill:#999999;enable-background:new" id="rect3763-35-7" width="13.822487" height="27.644974" x="154.73587" y="1022.1718"></rect><rect style="display:inline;fill:#999999;enable-background:new" id="rect3763-3-9" width="13.822487" height="27.644886" x="883.94666" y="-210.0258" transform="matrix(0,1,-1,0,0,0)"></rect><rect style="display:inline;fill:#999999;enable-background:new" id="rect3763-6-2" width="13.822487" height="27.644974" x="911.59167" y="-210.02589" transform="matrix(0,1,-1,0,0,0)"></rect><rect style="display:inline;fill:#999999;enable-background:new" id="rect3763-7-0" width="13.822487" height="27.644974" x="939.23663" y="-210.02589" transform="matrix(0,1,-1,0,0,0)"></rect><rect style="display:inline;fill:#999999;enable-background:new" id="rect3763-5-2" width="13.822487" height="27.644974" x="966.88165" y="-210.02589" transform="matrix(0,1,-1,0,0,0)"></rect><rect style="display:inline;fill:#999999;enable-background:new" id="rect3763-35-3" width="13.822487" height="27.644974" x="994.52661" y="-210.0258" transform="matrix(0,1,-1,0,0,0)"></rect><rect style="display:inline;fill:#999999;enable-background:new" id="rect3763-3-9-7" width="13.822487" height="27.644886" x="883.94666" y="-30.333382" transform="matrix(0,1,-1,0,0,0)"></rect><rect style="display:inline;fill:#999999;enable-background:new" id="rect3763-6-2-5" width="13.822487" height="27.644974" x="911.59167" y="-30.333443" transform="matrix(0,1,-1,0,0,0)"></rect><rect style="display:inline;fill:#999999;enable-background:new" id="rect3763-7-0-9" width="13.822487" height="27.644974" x="939.23663" y="-30.333443" transform="matrix(0,1,-1,0,0,0)"></rect><rect style="display:inline;fill:#999999;enable-background:new" id="rect3763-5-2-2" width="13.822487" height="27.644974" x="966.88165" y="-30.333443" transform="matrix(0,1,-1,0,0,0)"></rect><rect style="display:inline;fill:#999999;enable-background:new" id="rect3763-35-3-2" width="13.822487" height="27.644974" x="994.52661" y="-30.333382" transform="matrix(0,1,-1,0,0,0)"></rect></g></svg>