<?xml version="1.0" encoding="UTF-8"?>
<svg width="330px" height="44px" viewBox="0 0 330 44" version="1.1" xmlns="http://www.w3.org/2000/svg" xmlns:xlink="http://www.w3.org/1999/xlink">
    <title>HSA_Logo_horizontal</title>
    <g id="HSA_Logo_horizontal" stroke="none" stroke-width="1" fill="none" fill-rule="evenodd">
        <g id="Faces" transform="translate(0.000000, -0.000187)" fill="#FF9800" fill-rule="nonzero">
            <path d="M12.2119604,0.071197322 C11.502297,0.287712173 11.0448713,0.938999302 11.0448713,1.64430623 C11.0448713,1.8020092 11.068396,1.96363297 11.1163168,2.12307851 C11.1163168,2.12307851 17.7250297,23.8359894 18.8250297,27.4487815 C15.7933861,27.4487815 8.25152475,27.445732 8.25152475,27.445732 C7.34364356,27.445732 6.60740594,28.1810983 6.60740594,29.0894151 C6.60740594,29.997732 7.34277228,30.7330983 8.25021782,30.7330983 L21.0424554,30.7352765 C21.5643564,30.7352765 22.0535842,30.4891379 22.364198,30.0726627 C22.673505,29.6513953 22.7671683,29.1125043 22.6142574,28.6132567 L14.262099,1.16509831 C13.9976634,0.296860688 13.0788911,-0.191931391 12.2119604,0.071197322 Z" id="Path"></path>
            <path d="M-1.06137321e-13,10.7087419 C-1.06137321e-13,11.8963062 0.966693069,12.8625637 2.15338614,12.8625637 C3.34225743,12.8625637 4.30982178,11.8963062 4.30982178,10.7087419 C4.30982178,9.51987059 3.34225743,8.55361316 2.15338614,8.55361316 C0.967128713,8.55361316 -1.06137321e-13,9.52030623 -1.06137321e-13,10.7087419 Z" id="Path"></path>
            <path d="M42.2447921,0.071197322 C42.9518416,0.287712173 43.4070891,0.938999302 43.4070891,1.64430623 C43.4070891,1.8020092 43.3870495,1.96363297 43.3369505,2.12307851 C43.3369505,2.12307851 36.7291089,23.8359894 35.6299802,27.4487815 C38.6616238,27.4487815 46.2043564,27.445732 46.2043564,27.445732 C47.1122376,27.445732 47.8480396,28.1810983 47.8480396,29.0894151 C47.8480396,29.997732 47.1122376,30.7330983 46.2043564,30.7330983 L33.4129901,30.7352765 C32.8906535,30.7352765 32.4005545,30.4891379 32.0899406,30.0726627 C31.7810693,29.6513953 31.6856634,29.1125043 31.8372673,28.6132567 L40.1911683,1.16509831 C40.4569109,0.296860688 41.3743762,-0.191931391 42.2447921,0.071197322 Z" id="Path"></path>
            <path d="M24.5994851,10.6629993 C24.5994851,11.8239894 25.5435248,12.7689003 26.7058218,12.7689003 C27.8663762,12.7689003 28.8130297,11.8239894 28.8130297,10.6629993 C28.8130297,9.50113792 27.8663762,8.55622702 26.7058218,8.55622702 C25.5435248,8.55622702 24.5994851,9.50113792 24.5994851,10.6629993 Z" id="Path"></path>
            <path d="M67.4036436,0.071197322 C68.1137426,0.287712173 68.5698614,0.938999302 68.5698614,1.64430623 C68.5698614,1.8020092 68.5450297,1.96363297 68.4971089,2.12307851 C68.4971089,2.12307851 61.8888317,23.8359894 60.7905743,27.4487815 C63.8204752,27.4487815 71.361901,27.445732 71.361901,27.445732 C72.2715248,27.445732 73.0077624,28.1810983 73.0077624,29.0894151 C73.0077624,29.997732 72.2715248,30.7330983 71.3649505,30.7330983 L58.5714059,30.7352765 C58.0512475,30.7352765 57.5607129,30.4891379 57.2535842,30.0726627 C56.9399208,29.6513953 56.8484356,29.1125043 56.999604,28.6132567 L65.3530693,1.16509831 C65.6183762,0.296860688 66.5354059,-0.191931391 67.4036436,0.071197322 Z" id="Path"></path>
            <path d="M49.1967921,10.6629993 C49.1967921,11.8239894 50.141703,12.7689003 51.3031287,12.7689003 C52.466297,12.7689003 53.4085941,11.8239894 53.4085941,10.6629993 C53.4085941,9.50113792 52.466297,8.55622702 51.3031287,8.55622702 C50.141703,8.55622702 49.1967921,9.50113792 49.1967921,10.6629993 Z" id="Path"></path>
            <path d="M75.479604,10.7087419 C75.479604,11.8963062 76.447604,12.8625637 77.6373465,12.8625637 C78.823604,12.8625637 79.7920396,11.8963062 79.7920396,10.7087419 C79.7920396,9.51987059 78.823604,8.55361316 77.6373465,8.55361316 C76.447604,8.55361316 75.479604,9.52030623 75.479604,10.7087419 Z" id="Path"></path>
            <path d="M37.9602376,34.7405835 C37.2793267,34.7405835 36.7090693,35.2585637 36.6506931,35.9372963 C36.462495,38.0262072 37.1011485,40.035831 38.4011089,41.4582072 C39.455802,42.613534 40.8193663,43.2513161 42.2334653,43.2513161 C43.6475644,43.2513161 45.0085149,42.619633 46.0592871,41.4751973 C47.3570693,40.0645835 47.9952871,38.0492963 47.8192871,35.9429597 C47.7609109,35.2633557 47.1902178,34.7405835 46.5088713,34.7405835 L37.9602376,34.7405835 Z M45.1631683,37.3252567 C45.1845149,40.0345241 43.082099,40.6801478 42.2330297,40.6753821 C41.4022574,40.6692567 39.3137822,40.0515142 39.3007129,37.3252567 C40.8511683,37.3252567 43.6096634,37.3252567 45.1631683,37.3252567 Z" id="Shape"></path>
            <path d="M8.13085149,34.6848211 C7.29180198,34.6848211 6.60740594,35.3674745 6.60740594,36.2095736 C6.60740594,37.0508013 7.29136634,37.7334547 8.13085149,37.7334547 L14.9386535,37.7334547 C15.7807525,37.7334547 16.4616634,37.0508013 16.4616634,36.2095736 C16.4616634,35.3674745 15.7807525,34.6848211 14.9386535,34.6848211 L8.13085149,34.6848211 Z" id="Path"></path>
            <path d="M8.13085149,39.2934944 C7.29180198,39.2934944 6.60740594,39.9744052 6.60740594,40.8160686 C6.60740594,41.657732 7.29136634,42.3403854 8.13085149,42.3403854 L14.9386535,42.3403854 C15.7807525,42.3403854 16.4616634,41.6581676 16.4616634,40.8160686 C16.4616634,39.9739696 15.7807525,39.2934944 14.9386535,39.2934944 L8.13085149,39.2934944 Z" id="Path"></path>
            <path d="M70.8700594,37.0477518 C70.8569901,37.0534151 69.6145347,37.5905637 68.0453465,37.5879498 L67.2729505,37.5879498 C65.6545347,37.5879498 64.4020594,37.0508013 64.390297,37.0447023 C63.6218218,36.7114349 62.724396,37.0590785 62.3841584,37.8279894 C62.0482772,38.5929795 62.3885149,39.4873557 63.1543762,39.8293359 C63.3382178,39.9112369 65.0206733,40.6352861 67.2733861,40.6352861 L68.0457822,40.6352861 C70.2523168,40.638326 71.9308515,39.9112369 72.1146931,39.8275934 C72.8770693,39.4825637 73.2164356,38.5890587 72.8770693,37.8240686 C72.536396,37.0573359 71.638099,36.7114349 70.8700594,37.0477518 Z" id="Path"></path>
        </g>
        <path d="M97.552,17 L97.552,11.487 L103.176,11.487 L103.139,17 L105.396,17 L105.396,4.42 L103.176,4.42 L103.176,9.5075 L97.552,9.5075 L97.552,4.42 L95.332,4.42 L95.332,17 L97.552,17 Z M112.076556,17.222 C114.777556,17.222 116.479556,15.446 116.479556,12.634 C116.479556,9.8035 114.759056,7.9905 112.076556,7.9905 C109.394056,7.9905 107.673556,9.8035 107.673556,12.634 C107.673556,15.446 109.375556,17.222 112.076556,17.222 Z M112.076556,15.409 C110.726056,15.409 109.764056,14.3545 109.764056,12.597 C109.764056,10.8395 110.689056,9.785 112.076556,9.785 C113.464056,9.785 114.389056,10.821 114.389056,12.597 C114.389056,14.336 113.427056,15.409 112.076556,15.409 Z M122.309111,17.222 C124.566111,17.222 125.768611,15.742 126.175611,14.7985 L124.473611,13.892 C124.159111,14.6875 123.567111,15.3905 122.364611,15.3905 C120.977111,15.3905 120.070611,14.3545 120.070611,12.597 C120.070611,10.8395 120.958611,9.8035 122.364611,9.8035 C123.437611,9.8035 124.103611,10.451 124.418111,11.3945 L126.175611,10.4695 C125.639111,9.082 124.362611,7.9905 122.309111,7.9905 C119.885611,7.9905 117.980111,9.674 117.980111,12.634 C117.980111,15.594 119.756111,17.222 122.309111,17.222 Z M129.970167,17 L129.970167,12.2825 C129.970167,10.858 130.599167,9.8405 131.912667,9.8405 C132.819167,9.8405 133.281667,10.229 133.466667,10.858 C133.596167,11.302 133.614667,11.8755 133.614667,12.5415 L133.614667,17 L135.723667,17 L135.723667,12.005 C135.723667,10.303 135.538667,9.637 135.131667,9.0635 C134.539667,8.268 133.707167,7.972 132.708167,7.972 C131.376167,7.972 130.377167,8.5455 129.970167,9.3225 L129.970167,4.42 L127.861167,4.42 L127.861167,17 L129.970167,17 Z M141.627222,17.222 C143.643722,17.222 145.475222,16.26 145.475222,14.2435 C145.475222,12.634 144.272722,12.1345 142.940722,11.82 L141.886222,11.5795 C140.646722,11.3205 140.036222,11.191 140.036222,10.562 C140.036222,9.9885 140.646722,9.6925 141.479222,9.6925 C142.496722,9.6925 143.347722,10.0995 143.958222,10.6915 L145.179222,9.378 C144.605722,8.749 143.255222,7.972 141.497722,7.972 C139.814222,7.972 137.945722,8.786 137.945722,10.71 C137.945722,12.3195 139.148222,12.967 140.683722,13.3 L141.997222,13.5775 C142.848222,13.7625 143.347722,13.8735 143.347722,14.484 C143.347722,15.113 142.737222,15.483 141.682722,15.483 C140.332222,15.483 139.481222,14.8355 138.981722,14.1695 L137.557222,15.4275 C138.093722,16.186 139.518222,17.222 141.627222,17.222 Z M150.934778,17.222 C153.191778,17.222 154.394278,15.742 154.801278,14.7985 L153.099278,13.892 C152.784778,14.6875 152.192778,15.3905 150.990278,15.3905 C149.602778,15.3905 148.696278,14.3545 148.696278,12.597 C148.696278,10.8395 149.584278,9.8035 150.990278,9.8035 C152.063278,9.8035 152.729278,10.451 153.043778,11.3945 L154.801278,10.4695 C154.264778,9.082 152.988278,7.9905 150.934778,7.9905 C148.511278,7.9905 146.605778,9.674 146.605778,12.634 C146.605778,15.594 148.381778,17.222 150.934778,17.222 Z M158.595833,17 L158.595833,12.2825 C158.595833,10.858 159.224833,9.8405 160.538333,9.8405 C161.444833,9.8405 161.907333,10.229 162.092333,10.858 C162.221833,11.302 162.240333,11.8755 162.240333,12.5415 L162.240333,17 L164.349333,17 L164.349333,12.005 C164.349333,10.303 164.164333,9.637 163.757333,9.0635 C163.165333,8.268 162.332833,7.972 161.333833,7.972 C160.001833,7.972 159.002833,8.5455 158.595833,9.3225 L158.595833,4.42 L156.486833,4.42 L156.486833,17 L158.595833,17 Z M169.734889,17.222 C170.992889,17.222 171.936389,16.6115 172.361889,15.8715 L172.361889,17 L174.470889,17 L174.470889,8.194 L172.361889,8.194 L172.361889,12.9115 C172.361889,14.336 171.788389,15.3535 170.474889,15.3535 C169.734889,15.3535 169.327889,15.039 169.124389,14.5765 C168.920889,14.114 168.902389,13.5035 168.902389,12.8745 L168.902389,8.194 L166.793389,8.194 L166.793389,13.189 C166.793389,15.1315 167.015389,15.742 167.570389,16.371 C168.088389,16.9445 168.846889,17.222 169.734889,17.222 Z M179.190444,17 L179.190444,4.42 L177.081444,4.42 L177.081444,17 L179.190444,17 Z M185.6305,17.222 C188.202,17.222 189.386,15.6125 189.7745,15.002 L188.313,13.892 C188.0355,14.336 187.3325,15.409 185.7415,15.409 C184.1875,15.409 183.4475,14.373 183.2995,13.1705 L189.719,13.1705 C189.719,13.0225 189.7375,12.782 189.7375,12.634 C189.7375,9.933 188.387,7.9905 185.575,7.9905 C183.1145,7.9905 181.246,9.8035 181.246,12.523 C181.246,15.372 183.022,17.222 185.6305,17.222 Z M187.647,11.598 L183.355,11.598 C183.4105,10.5435 184.3725,9.674 185.575,9.674 C186.759,9.674 187.5915,10.451 187.647,11.598 Z M197.900111,17 L198.880611,14.151 L203.450111,14.151 L204.412111,17 L206.798611,17 L202.469611,4.42 L199.953611,4.42 L195.587611,17 L197.900111,17 Z M202.802611,12.1715 L199.509611,12.1715 L200.693611,8.305 C200.897111,7.713 201.045111,7.195 201.156111,6.7325 L201.174611,6.7325 C201.304111,7.2135 201.433611,7.75 201.637111,8.342 L202.802611,12.1715 Z M211.148167,17.222 C212.406167,17.222 213.349667,16.6115 213.775167,15.8715 L213.775167,17 L215.884167,17 L215.884167,8.194 L213.775167,8.194 L213.775167,12.9115 C213.775167,14.336 213.201667,15.3535 211.888167,15.3535 C211.148167,15.3535 210.741167,15.039 210.537667,14.5765 C210.334167,14.114 210.315667,13.5035 210.315667,12.8745 L210.315667,8.194 L208.206667,8.194 L208.206667,13.189 C208.206667,15.1315 208.428667,15.742 208.983667,16.371 C209.501667,16.9445 210.260167,17.222 211.148167,17.222 Z M222.268722,20.663 C224.433222,20.663 225.783722,20.0895 226.338722,18.6095 C226.542222,18.0545 226.616222,17.444 226.616222,16.5005 L226.616222,8.194 L224.507222,8.194 L224.507222,9.156 C224.026222,8.527 223.101222,7.972 221.880222,7.972 C219.456722,7.972 218.013722,9.8405 218.013722,12.6155 C218.013722,15.298 219.512222,17.037 221.898722,17.037 C223.452722,17.037 224.192722,16.3155 224.488722,15.9085 L224.507222,15.9085 L224.507222,16.704 C224.507222,18.369 223.933722,19.0165 222.342722,19.0165 C220.825722,19.0165 220.455722,18.2395 220.363222,17.4255 L218.235722,17.592 C218.309722,19.479 219.623222,20.663 222.268722,20.663 Z M222.361222,15.261 C220.936722,15.261 220.122722,14.299 220.122722,12.5415 C220.122722,10.7655 220.936722,9.785 222.361222,9.785 C223.767222,9.785 224.599722,10.8395 224.599722,12.5415 C224.599722,14.2435 223.767222,15.261 222.361222,15.261 Z M232.575278,17.222 C234.591778,17.222 236.423278,16.26 236.423278,14.2435 C236.423278,12.634 235.220778,12.1345 233.888778,11.82 L232.834278,11.5795 C231.594778,11.3205 230.984278,11.191 230.984278,10.562 C230.984278,9.9885 231.594778,9.6925 232.427278,9.6925 C233.444778,9.6925 234.295778,10.0995 234.906278,10.6915 L236.127278,9.378 C235.553778,8.749 234.203278,7.972 232.445778,7.972 C230.762278,7.972 228.893778,8.786 228.893778,10.71 C228.893778,12.3195 230.096278,12.967 231.631778,13.3 L232.945278,13.5775 C233.796278,13.7625 234.295778,13.8735 234.295778,14.484 C234.295778,15.113 233.685278,15.483 232.630778,15.483 C231.280278,15.483 230.429278,14.8355 229.929778,14.1695 L228.505278,15.4275 C229.041778,16.186 230.466278,17.222 232.575278,17.222 Z M242.900333,17.222 C245.249833,17.222 246.803833,15.2795 246.803833,12.634 C246.803833,9.896 245.286833,7.972 242.900333,7.972 C241.753333,7.972 240.791333,8.527 240.310333,9.156 L240.310333,4.42 L238.201333,4.42 L238.201333,17 L240.310333,17 L240.310333,16.075 C240.865333,16.7595 241.716333,17.222 242.900333,17.222 Z M242.456333,15.3905 C241.124333,15.3905 240.217833,14.299 240.217833,12.597 C240.217833,10.895 241.124333,9.785 242.456333,9.785 C243.806833,9.785 244.694833,10.821 244.694833,12.597 C244.694833,14.336 243.806833,15.3905 242.456333,15.3905 Z M251.763889,17.222 C253.021889,17.222 253.965389,16.6115 254.390889,15.8715 L254.390889,17 L256.499889,17 L256.499889,8.194 L254.390889,8.194 L254.390889,12.9115 C254.390889,14.336 253.817389,15.3535 252.503889,15.3535 C251.763889,15.3535 251.356889,15.039 251.153389,14.5765 C250.949889,14.114 250.931389,13.5035 250.931389,12.8745 L250.931389,8.194 L248.822389,8.194 L248.822389,13.189 C248.822389,15.1315 249.044389,15.742 249.599389,16.371 C250.117389,16.9445 250.875889,17.222 251.763889,17.222 Z M261.219444,17 L261.219444,13.041 C261.219444,12.264 261.293444,11.746 261.459944,11.302 C261.774444,10.5065 262.403444,10.0995 263.531944,10.0995 C263.716944,10.0995 263.920444,10.118 264.123944,10.1365 L264.123944,7.9905 C263.938944,7.972 263.901944,7.972 263.790944,7.972 C262.088944,7.972 261.385944,9.045 261.219444,9.489 L261.219444,8.194 L259.110444,8.194 L259.110444,17 L261.219444,17 Z M269.306,20.663 C271.4705,20.663 272.821,20.0895 273.376,18.6095 C273.5795,18.0545 273.6535,17.444 273.6535,16.5005 L273.6535,8.194 L271.5445,8.194 L271.5445,9.156 C271.0635,8.527 270.1385,7.972 268.9175,7.972 C266.494,7.972 265.051,9.8405 265.051,12.6155 C265.051,15.298 266.5495,17.037 268.936,17.037 C270.49,17.037 271.23,16.3155 271.526,15.9085 L271.5445,15.9085 L271.5445,16.704 C271.5445,18.369 270.971,19.0165 269.38,19.0165 C267.863,19.0165 267.493,18.2395 267.4005,17.4255 L265.273,17.592 C265.347,19.479 266.6605,20.663 269.306,20.663 Z M269.3985,15.261 C267.974,15.261 267.16,14.299 267.16,12.5415 C267.16,10.7655 267.974,9.785 269.3985,9.785 C270.8045,9.785 271.637,10.8395 271.637,12.5415 C271.637,14.2435 270.8045,15.261 269.3985,15.261 Z" id="HochschuleAugsburg" fill="#1E1E1E" fill-rule="nonzero"></path>
        <path d="M99.958,39.234 C102.28,39.234 103.918,38.19 104.404,36.12 C104.494,35.67 104.548,35.274 104.548,33.96 L104.548,26.76 L103.414,26.76 L103.414,34.05 C103.414,35.49 103.306,36.03 103.072,36.552 C102.568,37.704 101.452,38.226 99.958,38.226 C98.446,38.226 97.33,37.704 96.826,36.552 C96.592,36.03 96.484,35.49 96.484,34.05 L96.484,26.76 L95.35,26.76 L95.35,33.96 C95.35,35.027625 95.3856484,35.4892266 95.4569453,35.8661631 L95.4923828,36.0360205 C95.4987109,36.0639609 95.50525,36.091875 95.512,36.12 C95.998,38.19 97.654,39.234 99.958,39.234 Z M108.346,39 L108.346,33.906 C108.346,33.186 108.562,32.43 109.066,31.908 C109.462,31.476 110.038,31.206 110.812,31.206 C111.514,31.206 112.018,31.404 112.342,31.764 C112.792,32.25 112.882,33.042 112.882,34.392 L112.882,39 L113.944,39 L113.944,34.158 C113.944,32.25 113.728,31.674 113.188,31.062 C112.684,30.504 111.946,30.234 111.064,30.234 C109.606,30.234 108.67,31.026 108.346,31.854 L108.346,30.432 L107.284,30.432 L107.284,39 L108.346,39 Z M117.706,28.524 L117.706,26.76 L116.644,26.76 L116.644,28.524 L117.706,28.524 Z M117.706,39 L117.706,30.432 L116.644,30.432 L116.644,39 L117.706,39 Z M123.142,39 L126.49,30.432 L125.428,30.432 L123.286,35.976 C122.998,36.714 122.8,37.29 122.746,37.47 L122.728,37.47 L122.242,36.03 L120.316,30.432 L119.2,30.432 L122.206,39 L123.142,39 Z M131.368,39.216 C133.546,39.216 134.608,37.866 135.094,36.894 L134.284,36.372 C133.888,37.2 133.042,38.28 131.404,38.28 C129.802,38.28 128.506,37.182 128.506,34.95 L128.506,34.824 L135.022,34.824 L135.022,34.68 C135.022,32.142 133.762,30.234 131.278,30.234 C128.974,30.234 127.408,32.052 127.408,34.662 C127.408,37.578 128.956,39.216 131.368,39.216 Z M133.87,33.96 L128.542,33.96 C128.686,32.232 129.712,31.116 131.278,31.116 C132.934,31.116 133.87,32.574 133.87,33.96 Z M138.388,39 L138.388,34.158 C138.388,32.43 139.468,31.278 140.962,31.278 C141.16,31.278 141.358,31.296 141.556,31.332 L141.556,30.27 C141.358,30.234 141.178,30.216 140.98,30.216 C139.684,30.216 138.694,31.08 138.388,32.088 L138.388,30.432 L137.326,30.432 L137.326,39 L138.388,39 Z M145.642,39.216 C147.568,39.198 148.972,38.316 148.972,36.642 C148.972,35.112 147.856,34.59 146.416,34.266 L145.282,33.996 C144.148,33.744 143.572,33.42 143.572,32.52 C143.572,31.566 144.418,31.134 145.462,31.134 C146.596,31.134 147.352,31.728 147.784,32.322 L148.594,31.638 C147.982,30.9 146.974,30.234 145.48,30.234 C143.842,30.234 142.492,31.098 142.492,32.646 C142.492,34.068 143.392,34.59 144.904,34.95 L146.092,35.238 C147.118,35.49 147.892,35.76 147.892,36.714 C147.892,37.632 147.208,38.28 145.768,38.298 C144.472,38.298 143.518,37.686 142.978,36.822 L142.114,37.434 C142.654,38.334 143.932,39.216 145.642,39.216 Z M152.05,28.524 L152.05,26.76 L150.988,26.76 L150.988,28.524 L152.05,28.524 Z M152.05,39 L152.05,30.432 L150.988,30.432 L150.988,39 L152.05,39 Z M156.838,39.18 C157.576,39.18 158.08,39.036 158.386,38.892 L158.386,37.938 C158.152,38.064 157.684,38.226 157.162,38.226 C156.82,38.226 156.622,38.154 156.496,37.992 C156.352,37.794 156.334,37.488 156.334,37.056 L156.334,31.26 L158.386,31.26 L158.386,30.432 L156.334,30.432 L156.334,26.994 L155.272,27.228 L155.272,30.432 L153.544,30.432 L153.544,31.26 L155.272,31.26 L155.272,37.452 C155.272,38.082 155.38,38.496 155.614,38.766 C155.884,39.072 156.298,39.18 156.838,39.18 Z M160.168,42.636 C160.96,42.636 161.392,42.348 161.734,41.79 C161.968,41.394 162.202,40.818 162.454,40.17 L166.288,30.432 L165.19,30.432 L163.012,36.084 C162.724,36.822 162.562,37.29 162.472,37.56 L162.454,37.56 L161.968,36.138 L159.934,30.432 L158.782,30.432 L161.842,39 L161.374,40.26 C161.158,40.836 161.032,41.088 160.906,41.268 C160.726,41.538 160.474,41.646 160.132,41.646 C159.736,41.646 159.376,41.502 159.052,41.286 L159.052,42.348 C159.232,42.456 159.628,42.636 160.168,42.636 Z M176.044,39.216 C178.474,39.216 179.932,37.452 179.932,34.752 C179.932,32.034 178.456,30.234 176.044,30.234 C173.632,30.234 172.156,32.034 172.156,34.752 C172.156,37.452 173.614,39.216 176.044,39.216 Z M176.044,38.298 C174.388,38.298 173.272,36.966 173.272,34.734 C173.272,32.502 174.352,31.134 176.044,31.134 C177.736,31.134 178.816,32.484 178.816,34.734 C178.816,36.948 177.7,38.298 176.044,38.298 Z M183.892,39 L183.892,31.26 L185.836,31.26 L185.836,30.432 L183.892,30.432 L183.892,28.632 C183.892,28.146 183.964,27.876 184.162,27.696 C184.306,27.57 184.504,27.498 184.81,27.498 C185.17,27.498 185.548,27.588 185.836,27.678 L185.836,26.706 C185.584,26.634 185.224,26.544 184.738,26.544 C184.108,26.544 183.568,26.688 183.226,27.084 C182.974,27.372 182.83,27.768 182.83,28.488 L182.83,30.432 L180.886,30.432 L180.886,31.26 L182.83,31.26 L182.83,39 L183.892,39 Z M192.406,39 L193.738,35.31 L199.012,35.31 L200.38,39 L201.604,39 L196.978,26.76 L195.862,26.76 L191.2,39 L192.406,39 Z M198.616,34.266 L194.116,34.266 L195.826,29.784 C196.15,28.956 196.222,28.704 196.366,28.272 L196.384,28.272 C196.51,28.704 196.618,29.046 196.906,29.766 L198.616,34.266 Z M204.142,42.42 L204.142,37.47 C204.556,38.442 205.528,39.216 206.968,39.216 C209.092,39.216 210.55,37.596 210.55,34.752 C210.55,31.872 209.092,30.234 206.932,30.234 C205.564,30.234 204.556,31.008 204.142,31.962 L204.142,30.432 L203.08,30.432 L203.08,42.42 L204.142,42.42 Z M206.77,38.298 C205.132,38.298 204.106,37.038 204.106,34.734 C204.106,32.394 205.132,31.152 206.734,31.152 C208.39,31.152 209.434,32.394 209.434,34.716 C209.434,37.002 208.462,38.298 206.77,38.298 Z M213.844,42.42 L213.844,37.47 C214.258,38.442 215.23,39.216 216.67,39.216 C218.794,39.216 220.252,37.596 220.252,34.752 C220.252,31.872 218.794,30.234 216.634,30.234 C215.266,30.234 214.258,31.008 213.844,31.962 L213.844,30.432 L212.782,30.432 L212.782,42.42 L213.844,42.42 Z M216.472,38.298 C214.834,38.298 213.808,37.038 213.808,34.734 C213.808,32.394 214.834,31.152 216.436,31.152 C218.092,31.152 219.136,32.394 219.136,34.716 C219.136,37.002 218.164,38.298 216.472,38.298 Z M223.51,39 L223.51,26.76 L222.448,26.76 L222.448,39 L223.51,39 Z M227.344,28.524 L227.344,26.76 L226.282,26.76 L226.282,28.524 L227.344,28.524 Z M227.344,39 L227.344,30.432 L226.282,30.432 L226.282,39 L227.344,39 Z M233.5,39.216 C235.678,39.216 236.74,37.866 237.226,36.894 L236.416,36.372 C236.02,37.2 235.174,38.28 233.536,38.28 C231.934,38.28 230.638,37.182 230.638,34.95 L230.638,34.824 L237.154,34.824 L237.154,34.68 C237.154,32.142 235.894,30.234 233.41,30.234 C231.106,30.234 229.54,32.052 229.54,34.662 C229.54,37.578 231.088,39.216 233.5,39.216 Z M236.002,33.96 L230.674,33.96 C230.818,32.232 231.844,31.116 233.41,31.116 C235.066,31.116 236.002,32.574 236.002,33.96 Z M242.446,39.216 C243.904,39.216 244.84,38.478 245.29,37.47 L245.29,39 L246.352,39 L246.352,26.76 L245.29,26.76 L245.29,31.962 C244.876,31.008 243.868,30.234 242.5,30.234 C240.376,30.234 238.882,31.89 238.882,34.752 C238.882,37.632 240.34,39.216 242.446,39.216 Z M242.662,38.298 C240.97,38.298 239.998,37.002 239.998,34.716 C239.998,32.394 241.042,31.152 242.698,31.152 C244.3,31.152 245.326,32.394 245.326,34.734 C245.326,37.038 244.3,38.298 242.662,38.298 Z M257.8,39.216 C260.608,39.216 262.318,37.668 262.318,35.58 C262.318,33.564 261.022,32.772 258.88,32.304 L257.242,31.944 C255.622,31.584 254.776,31.098 254.776,29.748 C254.776,28.434 256,27.57 257.656,27.57 C259.06,27.57 260.14,28.164 260.914,29.172 L261.814,28.398 C261.076,27.426 259.726,26.544 257.71,26.544 C255.28,26.544 253.588,27.93 253.588,29.838 C253.588,32.016 255.154,32.628 256.972,33.024 L258.502,33.366 C260.248,33.744 261.112,34.32 261.112,35.652 C261.112,37.182 259.924,38.208 257.818,38.208 C255.712,38.208 254.452,37.02 253.966,35.76 L252.958,36.426 C253.588,37.794 255.136,39.216 257.8,39.216 Z M267.952,39.216 C269.554,39.216 270.67,38.442 271.282,37.182 L270.436,36.66 C269.896,37.758 269.14,38.298 267.952,38.298 C266.296,38.298 265.18,36.966 265.18,34.734 C265.18,32.502 266.26,31.134 267.952,31.134 C269.158,31.134 269.932,31.8 270.364,33.006 L271.282,32.466 C270.742,31.062 269.626,30.234 267.952,30.234 C265.594,30.234 264.064,31.998 264.064,34.752 C264.064,37.488 265.558,39.216 267.952,39.216 Z M274.216,28.524 L274.216,26.76 L273.154,26.76 L273.154,28.524 L274.216,28.524 Z M274.216,39 L274.216,30.432 L273.154,30.432 L273.154,39 L274.216,39 Z M280.372,39.216 C282.55,39.216 283.612,37.866 284.098,36.894 L283.288,36.372 C282.892,37.2 282.046,38.28 280.408,38.28 C278.806,38.28 277.51,37.182 277.51,34.95 L277.51,34.824 L284.026,34.824 L284.026,34.68 C284.026,32.142 282.766,30.234 280.282,30.234 C277.978,30.234 276.412,32.052 276.412,34.662 C276.412,37.578 277.96,39.216 280.372,39.216 Z M282.874,33.96 L277.546,33.96 C277.69,32.232 278.716,31.116 280.282,31.116 C281.938,31.116 282.874,32.574 282.874,33.96 Z M287.392,39 L287.392,33.906 C287.392,33.186 287.608,32.43 288.112,31.908 C288.508,31.476 289.084,31.206 289.858,31.206 C290.56,31.206 291.064,31.404 291.388,31.764 C291.838,32.25 291.928,33.042 291.928,34.392 L291.928,39 L292.99,39 L292.99,34.158 C292.99,32.25 292.774,31.674 292.234,31.062 C291.73,30.504 290.992,30.234 290.11,30.234 C288.652,30.234 287.716,31.026 287.392,31.854 L287.392,30.432 L286.33,30.432 L286.33,39 L287.392,39 Z M299.002,39.216 C300.604,39.216 301.72,38.442 302.332,37.182 L301.486,36.66 C300.946,37.758 300.19,38.298 299.002,38.298 C297.346,38.298 296.23,36.966 296.23,34.734 C296.23,32.502 297.31,31.134 299.002,31.134 C300.208,31.134 300.982,31.8 301.414,33.006 L302.332,32.466 C301.792,31.062 300.676,30.234 299.002,30.234 C296.644,30.234 295.114,31.998 295.114,34.752 C295.114,37.488 296.608,39.216 299.002,39.216 Z M307.588,39.216 C309.766,39.216 310.828,37.866 311.314,36.894 L310.504,36.372 C310.108,37.2 309.262,38.28 307.624,38.28 C306.022,38.28 304.726,37.182 304.726,34.95 L304.726,34.824 L311.242,34.824 L311.242,34.68 C311.242,32.142 309.982,30.234 307.498,30.234 C305.194,30.234 303.628,32.052 303.628,34.662 C303.628,37.578 305.176,39.216 307.588,39.216 Z M310.09,33.96 L304.762,33.96 C304.906,32.232 305.932,31.116 307.498,31.116 C309.154,31.116 310.09,32.574 310.09,33.96 Z M316.138,39.216 C318.064,39.198 319.468,38.316 319.468,36.642 C319.468,35.112 318.352,34.59 316.912,34.266 L315.778,33.996 C314.644,33.744 314.068,33.42 314.068,32.52 C314.068,31.566 314.914,31.134 315.958,31.134 C317.092,31.134 317.848,31.728 318.28,32.322 L319.09,31.638 C318.478,30.9 317.47,30.234 315.976,30.234 C314.338,30.234 312.988,31.098 312.988,32.646 C312.988,34.068 313.888,34.59 315.4,34.95 L316.588,35.238 C317.614,35.49 318.388,35.76 318.388,36.714 C318.388,37.632 317.704,38.28 316.264,38.298 C314.968,38.298 314.014,37.686 313.474,36.822 L312.61,37.434 C313.15,38.334 314.428,39.216 316.138,39.216 Z" id="UniversityofAppliedSciences" fill="#1E1E1E" fill-rule="nonzero"></path>
    </g>
</svg>