<?xml version="1.0" encoding="UTF-8"?>
<svg xmlns="http://www.w3.org/2000/svg" id="Ebene_1" data-name="Ebene 1" viewBox="0 0 600.08 150.48"><defs><style> .cls-1 { fill: #ff8c5f; } </style></defs><path class="cls-1" d="M600.08,58.98l-15.32-9.85c-3.17,5.91-7.87,10.29-17.5,10.29-11.38,0-18.27-9.19-18.27-20.9s6.67-20.79,17.61-20.79c9.4,0,14,4.48,16.84,8.87l14.99-10.18c-6.24-9.18-16.09-15.96-32.16-15.96-19.91,0-37.62,15.63-37.62,38.06s17.82,38.17,38.72,38.17c15.09,0,25.38-5.36,32.7-17.71m-131.14,16.73h53.7v-16.73h-33.8v-12.81h26.91v-15.85h-26.91v-12.27h32.27V1.33h-52.16V75.71h0Zm-49.66,0h19.89V18.05h19.68V1.33h-59.27V18.05h19.69v57.66h.01Zm-61.26,1.08c18.59,0,32.26-9.84,32.26-29.85V1.33h-19.89V46.73c0,8.43-3.95,13.23-12.36,13.23s-12.38-4.81-12.38-13.23V1.33h-19.9V46.95c0,20.01,13.67,29.85,32.28,29.85m-81.4-39.03V18.17h9.2c6.79,0,10.4,3.72,10.4,9.85s-3.61,9.74-10.4,9.74h-9.2Zm0,16.62h10.17c18.93,0,29.42-11.15,29.42-26.36s-10.49-26.68-29.42-26.68h-30.07V75.7h19.89v-21.33h0Zm-113.42,21.34h19.47l1.75-31.83,19.35,21.66c.21,.27,.6,.33,.87,.12,.05-.03,.09-.07,.12-.12l18.59-21.55,1.75,31.73h19.58L240.31,.55c-.11-.77-.55-.66-.98-.11l-35.1,40.04L168.56,.44c-.43-.55-.87-.66-.98,.11l-4.38,75.15h0Zm-48.36-16.27c-12.47,0-19.58-9.19-19.58-20.9s7.11-20.79,19.58-20.79,19.58,9.08,19.58,20.79-7.11,20.9-19.58,20.9m0,17.27c21.44,0,39.92-15.74,39.92-38.17S136.29,.45,114.85,.45s-39.92,15.63-39.92,38.06,18.47,38.17,39.92,38.17m-43.43-17.71l-15.32-9.85c-3.17,5.91-7.87,10.29-17.5,10.29-11.37,0-18.27-9.19-18.27-20.9s6.68-20.79,17.61-20.79c9.41,0,14.01,4.48,16.85,8.87l14.98-10.19C63.54,7.23,53.7,.45,37.61,.45,17.71,.45,0,16.09,0,38.52s17.82,38.17,38.71,38.17c15.09,0,25.38-5.36,32.7-17.71"/><path d="M32.33,126.2v13.98h-3.34v-14.64c0-2.17-.49-3.87-1.48-5.11s-2.5-1.86-4.54-1.86c-1.85-.06-3.64,.65-4.94,1.98-1.29,1.32-1.93,3.11-1.93,5.37v14.26h-3.34v-23.96h3.2v3.67c1.54-2.82,4.06-4.24,7.58-4.24,3.8,0,6.4,1.54,7.81,4.61,.81-1.35,1.94-2.47,3.29-3.27,1.55-.92,3.33-1.39,5.13-1.34,2.79,0,4.95,.87,6.47,2.61,1.56,1.84,2.37,4.2,2.28,6.61v15.3h-3.34v-14.64c0-2.13-.5-3.83-1.49-5.08s-2.49-1.88-4.49-1.88c-1.84-.05-3.63,.66-4.92,1.98-1.3,1.32-1.95,3.2-1.95,5.65Z"/><path d="M80.39,140.74c-2.8,0-4.91-.64-6.33-1.91-1.46-1.34-2.25-3.27-2.14-5.25,0-4.02,3.01-6.43,9.01-7.22l8.4-1.11v-.66c0-4.05-2.26-6.07-6.78-6.07-3.83,0-6.05,1.58-6.68,4.75h-3.34c.26-2.16,1.33-4.15,2.99-5.55,1.65-1.38,4.04-2.07,7.18-2.07,3.33,0,5.82,.81,7.48,2.42s2.49,3.8,2.49,6.57v10.5c0,2.35,.24,4.03,.71,5.04h-3.3c-.4-1.33-.57-2.71-.52-4.1-1.82,3.11-4.88,4.66-9.18,4.66h0Zm8.94-12.83l-7.95,1.07c-2.2,.28-3.77,.81-4.73,1.57-.93,.72-1.47,1.85-1.43,3.03,0,1.57,.53,2.69,1.6,3.36,1.19,.71,2.57,1.06,3.95,1.01,2.67,0,4.76-.74,6.28-2.23,1.43-1.29,2.26-3.12,2.28-5.05v-2.77h0Z"/><path d="M129.38,116.03v3.15c-.38-.03-.77-.05-1.18-.05-1.91-.08-3.78,.6-5.18,1.91-1.32,1.27-1.98,3.11-1.98,5.53v13.6h-3.34v-23.96h3.2v3.72c.67-1.14,1.63-2.09,2.78-2.75,1.49-.85,3.18-1.27,4.9-1.2,0,0,.8,.05,.8,.05Z"/><path d="M168.68,135.84c-1.79,3.27-4.77,4.9-8.94,4.9-3.51,0-6.27-1.22-8.28-3.65-2.03-2.5-3.1-5.65-3.01-8.87-.1-3.24,.97-6.4,3.01-8.92,2.01-2.43,4.77-3.65,8.28-3.65,4.24,0,7.27,1.66,9.09,4.99v-4.42h3.2v33.74h-3.34v-14.12h0Zm.14-7.62c.1-2.48-.71-4.91-2.26-6.85-1.52-1.81-3.8-2.81-6.17-2.7-2.39-.1-4.69,.91-6.24,2.73-1.58,1.91-2.41,4.34-2.33,6.82-.08,2.48,.74,4.91,2.33,6.82,1.55,1.82,3.85,2.83,6.24,2.73,2.37,.11,4.65-.9,6.17-2.73,1.55-1.93,2.35-4.35,2.27-6.82h-.01Z"/><path d="M213.62,130.39v-14.17h3.34v23.96h-3.2v-3.48c-.67,1.14-1.62,2.1-2.75,2.78-1.51,.9-3.25,1.34-5.01,1.27-2.89,0-5.1-.84-6.64-2.52s-2.31-3.9-2.31-6.66v-15.34h3.34v14.64c0,4.64,2.06,6.96,6.17,6.97,1.87,.06,3.69-.62,5.06-1.91,1.33-1.27,2-3.11,2-5.53h0Z"/><path d="M249.06,140.74c-2.8,0-4.91-.64-6.33-1.91-1.46-1.34-2.24-3.27-2.14-5.25,0-4.02,3.01-6.43,9.01-7.22l8.4-1.11v-.66c0-4.05-2.26-6.07-6.78-6.07-3.83,0-6.06,1.58-6.69,4.75h-3.34c.26-2.16,1.32-4.15,2.99-5.55,1.65-1.38,4.04-2.07,7.18-2.07,3.33,0,5.82,.81,7.48,2.42s2.49,3.8,2.5,6.57v10.5c0,2.35,.24,4.03,.71,5.04h-3.3c-.4-1.33-.57-2.71-.52-4.1-1.82,3.11-4.88,4.66-9.18,4.66h0Zm8.94-12.83l-7.95,1.07c-2.2,.28-3.77,.81-4.73,1.57-.93,.72-1.47,1.85-1.43,3.03,0,1.57,.53,2.69,1.6,3.36,1.19,.71,2.57,1.06,3.95,1.01,2.67,0,4.76-.74,6.28-2.23,1.43-1.29,2.26-3.12,2.28-5.05v-2.77h0Z"/><path d="M298.06,116.03v3.15c-.37-.03-.77-.05-1.18-.05-1.91-.08-3.78,.6-5.18,1.91-1.32,1.27-1.97,3.11-1.97,5.53v13.6h-3.34v-23.96h3.2v3.72c.67-1.14,1.63-2.09,2.78-2.75,1.49-.85,3.18-1.27,4.89-1.2l.8,.05h0Z"/><path d="M337.35,120.55v-15.67h3.34v35.3h-3.2v-4.43c-1.79,3.33-4.82,4.99-9.09,4.99-3.51,0-6.27-1.22-8.28-3.65-2.03-2.5-3.1-5.65-3.01-8.88-.09-3.24,.97-6.4,3.01-8.92,2.01-2.43,4.77-3.65,8.28-3.65,4.14,0,7.13,1.63,8.94,4.9h.01Zm.14,7.68c.1-2.48-.71-4.91-2.26-6.85-1.52-1.81-3.8-2.81-6.17-2.7-2.39-.1-4.69,.91-6.24,2.73-1.59,1.91-2.41,4.34-2.33,6.82-.08,2.47,.75,4.88,2.33,6.78,1.55,1.82,3.85,2.83,6.24,2.73,2.37,.11,4.65-.9,6.17-2.73,1.54-1.91,2.35-4.32,2.26-6.78h0Z"/><path d="M413.79,120.6v-4.38h3.2v22.78c0,3.39-.96,6.15-2.89,8.28-1.93,2.13-4.7,3.2-8.31,3.2-3.14,0-5.63-.75-7.46-2.26-1.73-1.34-2.95-3.24-3.46-5.37h3.43c.47,1.41,1.43,2.61,2.71,3.37,1.47,.87,3.16,1.3,4.87,1.25,2.41,0,4.31-.71,5.69-2.14,1.41-1.5,2.16-3.51,2.07-5.58v-4.47c-1.85,3.23-4.82,4.85-8.9,4.85-3.45,0-6.2-1.19-8.24-3.58-2.05-2.41-3.14-5.49-3.06-8.66-.08-3.16,1.01-6.25,3.06-8.66,2.04-2.38,4.79-3.58,8.24-3.58,4.18,0,7.19,1.64,9.04,4.94h0Zm-2.28,13.94c1.56-1.85,2.37-4.22,2.28-6.64,.09-2.41-.72-4.77-2.28-6.61-1.55-1.75-3.8-2.71-6.14-2.61-2.35-.09-4.62,.87-6.19,2.64-1.58,1.83-2.41,4.18-2.33,6.59-.08,2.42,.75,4.78,2.33,6.61,1.56,1.77,3.83,2.75,6.19,2.66,2.34,.1,4.6-.87,6.14-2.64h0Z"/><path d="M453.7,116.03v3.15c-.38-.03-.77-.05-1.18-.05-1.91-.08-3.78,.6-5.18,1.91-1.32,1.27-1.98,3.11-1.98,5.53v13.6h-3.34v-23.96h3.2v3.72c.67-1.14,1.63-2.09,2.78-2.75,1.49-.85,3.18-1.27,4.89-1.2l.8,.05h0Z"/><path d="M484.95,140.74c-3.64,0-6.58-1.23-8.83-3.7-2.22-2.4-3.42-5.56-3.36-8.82-.07-3.28,1.14-6.46,3.36-8.87,2.24-2.46,5.19-3.7,8.83-3.7s6.63,1.23,8.87,3.7c2.23,2.41,3.43,5.59,3.37,8.87,.06,3.27-1.15,6.43-3.37,8.82-2.24,2.46-5.2,3.7-8.87,3.7Zm-8.81-12.52c-.09,2.5,.79,4.93,2.45,6.8,1.61,1.8,3.94,2.79,6.35,2.7,2.43,.09,4.77-.9,6.4-2.7,1.66-1.87,2.53-4.3,2.45-6.8,.09-2.51-.79-4.96-2.45-6.85-1.63-1.8-3.97-2.79-6.39-2.7-2.42-.09-4.76,.9-6.38,2.71-1.65,1.89-2.52,4.34-2.43,6.85h0Z"/><path d="M536.95,130.39v-14.17h3.34v23.96h-3.2v-3.48c-.67,1.14-1.62,2.1-2.75,2.78-1.51,.9-3.25,1.34-5.01,1.27-2.89,0-5.1-.84-6.64-2.52-1.54-1.68-2.31-3.9-2.31-6.66v-15.34h3.34v14.64c0,4.64,2.06,6.96,6.17,6.97,1.87,.06,3.69-.62,5.06-1.91,1.34-1.27,2-3.11,2-5.53h0Z"/><path d="M568.91,135.84v14.12h-3.34v-33.74h3.2v4.42c1.88-3.33,4.91-4.99,9.08-4.99,3.55,0,6.32,1.22,8.33,3.65,2.04,2.52,3.11,5.68,3.01,8.92,.09,3.22-.98,6.37-3.01,8.87-2.01,2.43-4.78,3.65-8.33,3.65-4.17,0-7.15-1.63-8.94-4.9h0Zm-.09-7.62c-.08,2.46,.72,4.86,2.26,6.78,1.51,1.83,3.8,2.84,6.17,2.73,2.39,.1,4.69-.91,6.24-2.73,1.58-1.9,2.41-4.31,2.33-6.78,.08-2.48-.74-4.91-2.33-6.82-1.55-1.82-3.85-2.83-6.24-2.73-2.36-.11-4.64,.89-6.17,2.71-1.55,1.94-2.35,4.37-2.26,6.85h0Z"/></svg>