<?xml version="1.0" encoding="UTF-8"?><svg xmlns="http://www.w3.org/2000/svg" viewBox="0 0 605 140"><defs><style>.y{fill:#3f3f3f;}.y,.z{stroke-width:0px;}.z{fill:#2dcaff;}</style></defs><g id="a"><g id="b"><path id="c" class="y" d="M192.92,51.69c-7.07,0-11.28,5.14-12.63,15.42-.7,5.33-.29,9.32,1.22,11.95,1.58,2.63,4.01,3.95,7.29,3.95,2.89,0,5.5-1.03,7.83-3.08,2.39-2.06,3.77-4.46,4.13-7.23l1.37-10.41c.39-2.96-.34-5.46-2.19-7.52-1.79-2.06-4.12-3.08-7.01-3.08ZM183.48,92.64c-5.65,0-9.98-2.25-12.99-6.75-3-4.56-3.97-10.82-2.92-18.79,1.05-7.97,3.56-14.13,7.54-18.5,4.04-4.37,9.05-6.55,15.03-6.55,3.02,0,5.61.55,7.78,1.64s4.21,2.92,6.12,5.49c.06.06.12.1.18.1s.1-.03.11-.1l.09-.67c.27-1.54,1.01-2.83,2.24-3.85,1.24-1.09,2.62-1.64,4.17-1.64h1.06c1.48,0,2.66.55,3.54,1.64.95,1.09,1.33,2.38,1.13,3.85l-5.37,40.76c-2.28,17.35-12.1,26.02-29.44,26.02-3.08,0-6.29-.26-9.63-.77-1.51-.26-2.69-1.03-3.55-2.31-.8-1.22-1.1-2.63-.89-4.24.17-1.28.82-2.31,1.95-3.08,1.19-.71,2.4-.9,3.64-.58,2.98.77,6.14,1.16,9.48,1.16,4.75,0,8.39-1.25,10.9-3.76,2.51-2.44,4.13-6.49,4.87-12.14l.39-2.99c0-.06-.02-.1-.08-.1s-.13.03-.21.1c-4.39,4.05-9.44,6.07-15.16,6.07h0Z"/><path id="d" class="y" d="M220.21,93.13c-1.48,0-2.69-.55-3.64-1.64-.95-1.09-1.33-2.38-1.13-3.85l5.15-39.12c.19-1.48.91-2.76,2.15-3.85,1.24-1.09,2.59-1.64,4.07-1.64h1.93c1.48,0,2.69.55,3.64,1.64.95,1.09,1.33,2.38,1.13,3.85l-.53,4.05c0,.06.02.1.08.1.13,0,.2-.03.21-.1,2.2-2.57,4.92-4.66,8.15-6.26,3.24-1.67,6.68-2.7,10.33-3.08,1.37-.13,2.46.32,3.29,1.35.84.96,1.17,2.12.99,3.47s-.81,2.51-1.9,3.47c-1.09.96-2.32,1.51-3.68,1.64-11.49.9-17.94,6.68-19.34,17.35l-2.26,17.15c-.19,1.48-.91,2.76-2.15,3.85s-2.59,1.64-4.07,1.64h-2.41Z"/><path id="e" class="y" d="M286.29,55.45c-1.51-2.7-4.16-4.05-7.95-4.05s-6.83,1.35-9.11,4.05c-2.21,2.63-3.7,6.84-4.46,12.62s-.39,10.02,1.12,12.72c1.58,2.63,4.27,3.95,8.06,3.95s6.79-1.32,9-3.95c2.28-2.7,3.8-6.94,4.57-12.72s.35-9.99-1.23-12.62ZM291.53,87.34c-4.83,4.5-11.1,6.75-18.81,6.75s-13.42-2.25-17.13-6.75c-3.64-4.56-4.91-10.99-3.82-19.27s4.05-14.68,8.88-19.18c4.9-4.56,11.21-6.84,18.92-6.84s13.38,2.28,17.02,6.84c3.71,4.5,5.02,10.89,3.93,19.18-1.09,8.29-4.09,14.71-8.99,19.27Z"/><path id="f" class="y" d="M305.57,93.13c-1.48,0-2.69-.55-3.64-1.64-.88-1.09-1.23-2.38-1.03-3.85l5.15-39.12c.19-1.48.88-2.76,2.05-3.85,1.24-1.09,2.59-1.64,4.07-1.64h1.35c1.48,0,2.66.51,3.56,1.54.96,1.03,1.37,2.28,1.24,3.76l-.09.67c0,.06.02.1.08.1.13,0,.2-.03.21-.1,4.4-4.63,8.98-6.94,13.73-6.94,2.89,0,5.13.55,6.72,1.64,1.66,1.09,2.98,3.02,3.96,5.78,0,.06.05.1.18.1.06,0,.13-.03.21-.1,4.7-4.95,9.59-7.42,14.66-7.42,5.33,0,8.96,1.45,10.9,4.34,2,2.89,2.53,7.87,1.6,14.94l-3.46,26.31c-.19,1.48-.91,2.76-2.15,3.85-1.17,1.09-2.5,1.64-3.97,1.64h-1.64c-1.48,0-2.69-.55-3.64-1.64-.95-1.09-1.33-2.38-1.13-3.85l3.21-24.38c.62-4.69.57-7.77-.13-9.25s-2.34-2.22-4.91-2.22c-1.67,0-3.44.77-5.32,2.31-1.87,1.54-2.91,3.08-3.11,4.63l-3.81,28.91c-.19,1.48-.91,2.76-2.15,3.85-1.24,1.09-2.59,1.64-4.07,1.64h-1.64c-1.48,0-2.69-.55-3.64-1.64-.88-1.09-1.23-2.38-1.03-3.85l3.21-24.38c.61-4.63.53-7.68-.24-9.15-.7-1.54-2.33-2.31-4.9-2.31-1.67,0-3.44.77-5.32,2.31s-2.91,3.08-3.11,4.63l-3.81,28.91c-.19,1.48-.91,2.76-2.15,3.85-1.24,1.09-2.59,1.64-4.07,1.64h-1.93Z"/><path id="g" class="y" d="M375.48,93.13c-1.48,0-2.69-.55-3.64-1.64-.88-1.09-1.23-2.38-1.03-3.85l5.15-39.12c.19-1.48.88-2.76,2.05-3.85,1.24-1.09,2.59-1.64,4.07-1.64h1.35c1.48,0,2.66.51,3.56,1.54.96,1.03,1.37,2.28,1.24,3.76l-.09.67c0,.06.02.1.08.1.13,0,.2-.03.21-.1,4.4-4.63,8.98-6.94,13.73-6.94,2.89,0,5.13.55,6.72,1.64,1.66,1.09,2.98,3.02,3.96,5.78,0,.06.05.1.18.1.06,0,.13-.03.21-.1,4.7-4.95,9.59-7.42,14.66-7.42,5.33,0,8.96,1.45,10.9,4.34,2,2.89,2.53,7.87,1.6,14.94l-3.46,26.31c-.19,1.48-.91,2.76-2.15,3.85-1.17,1.09-2.5,1.64-3.97,1.64h-1.64c-1.48,0-2.69-.55-3.64-1.64-.95-1.09-1.33-2.38-1.13-3.85l3.21-24.38c.62-4.69.57-7.77-.13-9.25-.7-1.48-2.34-2.22-4.91-2.22-1.67,0-3.44.77-5.32,2.31s-2.91,3.08-3.11,4.63l-3.81,28.91c-.19,1.48-.91,2.76-2.15,3.85-1.24,1.09-2.59,1.64-4.07,1.64h-1.64c-1.48,0-2.69-.55-3.64-1.64-.88-1.09-1.23-2.38-1.03-3.85l3.21-24.38c.61-4.63.53-7.68-.24-9.15-.7-1.54-2.33-2.31-4.9-2.31-1.67,0-3.44.77-5.32,2.31-1.87,1.54-2.91,3.08-3.11,4.63l-3.81,28.91c-.19,1.48-.91,2.76-2.15,3.85-1.24,1.09-2.59,1.64-4.07,1.64h-1.93Z"/><path id="h" class="y" d="M455.7,94.09c-5.65,0-9.56-1.54-11.73-4.63-2.16-3.15-2.74-8.45-1.76-15.9l3.3-25.05c.19-1.48.91-2.76,2.15-3.85s2.59-1.64,4.07-1.64h1.54c1.48,0,2.69.55,3.64,1.64s1.33,2.38,1.13,3.85l-3.12,23.71c-.59,4.5-.39,7.61.6,9.35.99,1.73,2.93,2.6,5.82,2.6,2.63,0,5.22-1.12,7.77-3.37,2.61-2.25,4.08-4.66,4.42-7.23l3.3-25.05c.19-1.48.91-2.76,2.15-3.85s2.59-1.64,4.07-1.64h1.93c1.48,0,2.66.55,3.54,1.64.95,1.09,1.33,2.38,1.13,3.85l-5.15,39.12c-.19,1.48-.91,2.76-2.15,3.85-1.17,1.09-2.5,1.64-3.97,1.64h-1.25c-1.54,0-2.79-.51-3.75-1.54-.88-1.09-1.26-2.41-1.12-3.95v-.67c0-.06-.03-.1-.09-.1s-.13.03-.21.1c-4.99,4.75-10.41,7.13-16.26,7.13h0Z"/><path id="i" class="y" d="M492.04,93.13c-1.48,0-2.69-.55-3.64-1.64s-1.33-2.38-1.13-3.85l5.15-39.12c.19-1.48.91-2.76,2.15-3.85s2.59-1.64,4.07-1.64h1.25c1.54,0,2.75.55,3.64,1.64.96,1.03,1.37,2.31,1.23,3.85l-.09.67c0,.06.02.1.08.1s.13-.03.21-.1c4.99-4.75,10.41-7.13,16.26-7.13s9.87,1.67,12.06,5.01c2.27,3.28,2.89,8.77,1.88,16.48l-3.17,24.09c-.19,1.48-.91,2.76-2.15,3.85s-2.59,1.64-4.07,1.64h-1.64c-1.48,0-2.69-.55-3.64-1.64-.88-1.09-1.23-2.38-1.03-3.85l3.04-23.13c.63-4.82.42-8.09-.63-9.83-.98-1.8-3.08-2.7-6.29-2.7-2.63,0-5.22,1.12-7.77,3.37s-3.99,4.66-4.32,7.23l-3.3,25.05c-.19,1.48-.91,2.76-2.15,3.85s-2.59,1.64-4.07,1.64h-1.93Z"/><path id="j" class="y" d="M540.64,93.13c-1.48,0-2.69-.55-3.64-1.64s-1.33-2.38-1.13-3.85l5.15-39.12c.19-1.48.91-2.76,2.15-3.85s2.59-1.64,4.07-1.64h2.51c1.48,0,2.69.55,3.64,1.64s1.33,2.38,1.13,3.85l-5.15,39.12c-.19,1.48-.91,2.76-2.15,3.85s-2.59,1.64-4.07,1.64h-2.51Z"/><path id="k" class="y" d="M590.39,55.45c-1.51-2.7-4.16-4.05-7.95-4.05s-6.83,1.35-9.11,4.05c-2.21,2.63-3.7,6.84-4.46,12.62s-.39,10.02,1.12,12.72c1.58,2.63,4.27,3.95,8.06,3.95s6.79-1.32,9-3.95c2.28-2.7,3.8-6.94,4.57-12.72s.35-9.99-1.23-12.62ZM595.63,87.34c-4.83,4.5-11.1,6.75-18.81,6.75s-13.42-2.25-17.13-6.75c-3.64-4.56-4.91-10.99-3.82-19.27,1.09-8.29,4.05-14.68,8.88-19.18,4.9-4.56,11.21-6.84,18.92-6.84s13.38,2.28,17.02,6.84c3.71,4.5,5.02,10.89,3.93,19.18s-4.09,14.71-8.99,19.27Z"/></g><path id="l" class="z" d="M542.78,20.85l6.66,14.94,10.59-14.94h-17.25Z"/></g><g id="m"><path id="n" class="y" d="M159.04,7.69l-44.36,20.04,17.01,28.23,27.35-47.36v-.91Z"/><path id="o" class="y" d="M43.14,32.87L46.12,0H1.35l41.79,32.87Z"/><path id="p" class="z" d="M44.08,72.71l26.12,3-20.58-23.16-5.53,20.16Z"/><path id="q" class="z" d="M41.59,44.29L0,11.57c4.95,8.57,17.17,29.73,34.28,59.37l7.32-26.65Z"/><path id="r" class="z" d="M52.85,35.7l48.86-13.71L96.97,0h-40.88l-3.24,35.7Z"/><path id="s" class="z" d="M99.58,32.9l-43.34,12.16,27.62,31.08,15.72-43.23Z"/><path id="t" class="z" d="M111.1,18.46L151.94,0h-44.82l3.97,18.46Z"/><path id="u" class="z" d="M94.97,74.6l29.32-5.82,1.73-2.99-17.36-28.81-13.68,37.63Z"/><path id="v" class="y" d="M77.31,86.52l-36.46-4.19c16.43,28.46,29.96,51.89,33.29,57.67l3.16-53.48Z"/><path id="w" class="z" d="M87.08,89.56l-2.88,48.66,18.42-31.9-15.54-16.76Z"/><path id="x" class="z" d="M95.95,84.53l11.86,12.79,9.88-17.11-21.74,4.32Z"/></g></svg>