<?xml version="1.0" encoding="UTF-8" standalone="no"?>
<!-- Created with Inkscape (http://www.inkscape.org/) -->

<svg
   width="210.5mm"
   height="65mm"
   viewBox="0 0 795.59057 245.66929"
   version="1.1"
   id="svg1"
   inkscape:version="1.4.2 (ebf0e940d0, 2025-05-08)"
   sodipodi:docname="Anzeige.svg"
   xml:space="preserve"
   inkscape:export-filename="Anzeige.pdf"
   inkscape:export-xdpi="96"
   inkscape:export-ydpi="96"
   xmlns:inkscape="http://www.inkscape.org/namespaces/inkscape"
   xmlns:sodipodi="http://sodipodi.sourceforge.net/DTD/sodipodi-0.dtd"
   xmlns:xlink="http://www.w3.org/1999/xlink"
   xmlns="http://www.w3.org/2000/svg"
   xmlns:svg="http://www.w3.org/2000/svg"><sodipodi:namedview
     id="namedview1"
     pagecolor="#ffffff"
     bordercolor="#000000"
     borderopacity="0.25"
     inkscape:showpageshadow="2"
     inkscape:pageopacity="0.0"
     inkscape:pagecheckerboard="0"
     inkscape:deskcolor="#d1d1d1"
     inkscape:document-units="mm"
     inkscape:zoom="0.456068"
     inkscape:cx="390.29268"
     inkscape:cy="111.82543"
     inkscape:window-width="1366"
     inkscape:window-height="699"
     inkscape:window-x="0"
     inkscape:window-y="0"
     inkscape:window-maximized="1"
     inkscape:current-layer="layer1"
     inkscape:clip-to-page="false" /><defs
     id="defs1"><linearGradient
       id="linearGradient46"
       inkscape:collect="always"><stop
         style="stop-color:#ff9900;stop-opacity:1;"
         offset="0"
         id="stop47" /><stop
         style="stop-color:#ff6600;stop-opacity:1;"
         offset="0.5"
         id="stop48" /><stop
         style="stop-color:#ffffff;stop-opacity:1;"
         offset="0.5"
         id="stop46" /></linearGradient><linearGradient
       id="linearGradient37"
       inkscape:collect="always"><stop
         style="stop-color:#ff9900;stop-opacity:1;"
         offset="0"
         id="stop38" /><stop
         style="stop-color:#ff6600;stop-opacity:1;"
         offset="0.50347057"
         id="stop43" /></linearGradient><linearGradient
       id="linearGradient34"
       inkscape:collect="always"><stop
         style="stop-color:#ffffff;stop-opacity:1;"
         offset="0.49841976"
         id="stop34" /><stop
         style="stop-color:#ff6600;stop-opacity:1;"
         offset="0.49841976"
         id="stop42" /><stop
         style="stop-color:#ff9900;stop-opacity:1;"
         offset="1"
         id="stop35" /></linearGradient><linearGradient
       inkscape:collect="always"
       xlink:href="#linearGradient34"
       id="linearGradient35"
       x1="525.48608"
       y1="432.62408"
       x2="268.21478"
       y2="689.89539"
       gradientUnits="userSpaceOnUse" /><linearGradient
       inkscape:collect="always"
       xlink:href="#linearGradient37"
       id="linearGradient38"
       x1="153.55801"
       y1="515.16797"
       x2="61.374165"
       y2="607.35181"
       gradientUnits="userSpaceOnUse"
       gradientTransform="translate(-2.1711716)" /><linearGradient
       inkscape:collect="always"
       xlink:href="#linearGradient46"
       id="linearGradient47"
       x1="685.2193"
       y1="172.6857"
       x2="-91.928894"
       y2="949.83386"
       gradientUnits="userSpaceOnUse"
       gradientTransform="translate(100.20519)" /></defs><g
     inkscape:label="Layer 1"
     inkscape:groupmode="layer"
     id="layer1"
     transform="translate(0,-438.42521)"><rect
       style="fill:#000000;fill-opacity:1;stroke:url(#linearGradient47);stroke-width:3.77953;stroke-dasharray:none"
       id="rect1"
       width="791.81104"
       height="241.88977"
       x="1.889765"
       y="440.31497" /><text
       xml:space="preserve"
       style="font-size:42.6667px;text-align:start;writing-mode:lr-tb;direction:ltr;text-anchor:start;fill:url(#linearGradient35)"
       x="396.49841"
       y="504.35583"
       id="text1"><tspan
         sodipodi:role="line"
         id="tspan1"
         x="396.49841"
         y="504.35583"
         style="font-style:normal;font-variant:normal;font-weight:normal;font-stretch:normal;font-size:37.3333px;font-family:Nunito;-inkscape-font-specification:Nunito;text-align:center;text-anchor:middle;fill:url(#linearGradient35)">Komm zum</tspan><tspan
         sodipodi:role="line"
         x="396.49841"
         y="575.32135"
         id="tspan2"
         style="font-style:normal;font-variant:normal;font-weight:normal;font-stretch:normal;font-size:64px;font-family:Nunito;-inkscape-font-specification:Nunito;text-align:center;text-anchor:middle;fill:url(#linearGradient35)">Linux-Infotag</tspan><tspan
         sodipodi:role="line"
         x="396.49841"
         y="637.68921"
         id="tspan3"
         style="font-style:normal;font-variant:normal;font-weight:normal;font-stretch:normal;font-size:37.3333px;font-family:Nunito;-inkscape-font-specification:Nunito;text-align:center;text-anchor:middle;fill:url(#linearGradient35)">in Augsburg!</tspan></text><text
       xml:space="preserve"
       style="font-style:normal;font-variant:normal;font-weight:normal;font-stretch:normal;font-size:16px;font-family:Nunito;-inkscape-font-specification:Nunito;text-align:center;writing-mode:lr-tb;direction:ltr;text-anchor:middle;fill:url(#linearGradient38)"
       x="105.22159"
       y="495.71188"
       id="text4"><tspan
         sodipodi:role="line"
         id="tspan4"
         x="105.22159"
         y="495.71188"
         style="font-size:16px;fill:url(#linearGradient38)">2. Mai 2026</tspan><tspan
         sodipodi:role="line"
         x="105.22159"
         y="515.71191"
         style="font-size:16px;fill:url(#linearGradient38)"
         id="tspan5">9:30 - 17:00</tspan><tspan
         sodipodi:role="line"
         x="105.22159"
         y="535.71191"
         style="font-size:16px;fill:url(#linearGradient38)"
         id="tspan6" /><tspan
         sodipodi:role="line"
         x="105.22159"
         y="555.71191"
         style="font-size:13.3333px;fill:url(#linearGradient38)"
         id="tspan9">An der Technischen</tspan><tspan
         sodipodi:role="line"
         x="105.22159"
         y="575.71191"
         style="font-size:13.3333px;fill:url(#linearGradient38)"
         id="tspan10">Hochschule Augsburg</tspan><tspan
         sodipodi:role="line"
         x="105.22159"
         y="595.71191"
         style="font-size:13.3333px;fill:url(#linearGradient38)"
         id="tspan11" /><tspan
         sodipodi:role="line"
         x="105.22159"
         y="615.71191"
         style="font-size:13.3333px;fill:url(#linearGradient38)"
         id="tspan12">Keine Eintrittskosten!</tspan><tspan
         sodipodi:role="line"
         x="105.22159"
         y="635.71191"
         style="font-size:13.3333px;fill:url(#linearGradient38)"
         id="tspan13">Keine Anmeldung!</tspan></text><rect
       style="display:none;fill:#ffffff;fill-opacity:1;stroke-width:1.03485"
       id="rect13"
       width="210.58984"
       height="62.62529"
       x="9.547918e-15"
       y="497.73279" /><rect
       style="display:none;fill:#ffffff;fill-opacity:1;stroke-width:0.989847"
       id="rect31"
       width="210.58984"
       height="75.971634"
       x="583.11096"
       y="558.15894"
       ry="7.5590553" /><g
       id="g48"
       transform="translate(2.1711826,-11.09714)"><g
         inkscape:label="QR Code: luga.de/LIT-2026"
         transform="matrix(1.2,0,0,1.2,616.6347,491.65985)"
         id="g31"><rect
           x="5.8000002"
           y="5.8000002"
           width="104.4"
           height="104.4"
           style="fill:#ffffff;fill-opacity:1;stroke:none;stroke-width:0.9"
           id="rect30"
           ry="7.5590553" /><g
           style="fill:#000000;stroke:none"
           id="g30"><path
             d="m 95.5,100 h -3 C 92.2239,100 92,99.7761 92,99.5 v -3 C 92,96.2239 92.2239,96 92.5,96 h 3 c 0.2761,0 0.5,0.2239 0.5,0.5 v 3 c 0,0.2761 -0.2239,0.5 -0.5,0.5 z m -12,0 h -3 C 80.2239,100 80,99.7761 80,99.5 v -3 C 80,96.2239 79.7761,96 79.5,96 h -3 C 76.2239,96 76,95.7761 76,95.5 v -3 C 76,92.2239 76.2239,92 76.5,92 h 7 c 0.2761,0 0.5,0.2239 0.5,0.5 v 7 c 0,0.2761 -0.2239,0.5 -0.5,0.5 z m -12,0 h -15 C 56.2239,100 56,99.7761 56,99.5 v -3 C 56,96.2239 56.2239,96 56.5,96 h 7 c 0.2761,0 0.5,-0.2239 0.5,-0.5 v -7 C 64,88.2239 64.2239,88 64.5,88 h 7 c 0.2761,0 0.5,0.2239 0.5,0.5 v 11 c 0,0.2761 -0.2239,0.5 -0.5,0.5 z m -20,0 h -3 C 48.2239,100 48,99.7761 48,99.5 v -19 C 48,80.2239 48.2239,80 48.5,80 h 3 c 0.2761,0 0.5,0.2239 0.5,0.5 v 3 c 0,0.2761 0.2239,0.5 0.5,0.5 h 7 c 0.2761,0 0.5,0.2239 0.5,0.5 v 7 c 0,0.2761 -0.2239,0.5 -0.5,0.5 h -7 C 52.2239,92 52,92.2239 52,92.5 v 7 c 0,0.2761 -0.2239,0.5 -0.5,0.5 z m -8,0 h -27 C 16.2239,100 16,99.7761 16,99.5 v -27 C 16,72.2239 16.2239,72 16.5,72 h 27 c 0.2761,0 0.5,0.2239 0.5,0.5 v 27 c 0,0.2761 -0.2239,0.5 -0.5,0.5 z m 48,-4 h -3 C 88.2239,96 88,95.7761 88,95.5 v -3 C 88,92.2239 87.7761,92 87.5,92 h -3 C 84.2239,92 84,91.7761 84,91.5 v -3 C 84,88.2239 84.2239,88 84.5,88 h 3 c 0.2761,0 0.5,-0.2239 0.5,-0.5 v -3 C 88,84.2239 88.2239,84 88.5,84 h 7 c 0.2761,0 0.5,0.2239 0.5,0.5 v 3 c 0,0.2761 -0.2239,0.5 -0.5,0.5 h -3 C 92.2239,88 92,88.2239 92,88.5 v 7 C 92,95.7761 91.7761,96 91.5,96 Z M 40,95.5 v -19 C 40,76.2239 39.7761,76 39.5,76 h -19 C 20.2239,76 20,76.2239 20,76.5 v 19 c 0,0.2761 0.2239,0.5 0.5,0.5 h 19 C 39.7761,96 40,95.7761 40,95.5 Z M 35.5,92 h -11 C 24.2239,92 24,91.7761 24,91.5 v -11 C 24,80.2239 24.2239,80 24.5,80 h 11 c 0.2761,0 0.5,0.2239 0.5,0.5 v 11 c 0,0.2761 -0.2239,0.5 -0.5,0.5 z m 48,-4 h -11 C 72.2239,88 72,87.7761 72,87.5 v -3 C 72,84.2239 72.2239,84 72.5,84 h 11 c 0.2761,0 0.5,0.2239 0.5,0.5 v 3 c 0,0.2761 -0.2239,0.5 -0.5,0.5 z m -20,-4 h -3 C 60.2239,84 60,83.7761 60,83.5 v -7 C 60,76.2239 60.2239,76 60.5,76 h 3 c 0.2761,0 0.5,-0.2239 0.5,-0.5 v -3 C 64,72.2239 64.2239,72 64.5,72 h 3 c 0.2761,0 0.5,0.2239 0.5,0.5 v 3 c 0,0.2761 0.2239,0.5 0.5,0.5 h 3 c 0.2761,0 0.5,0.2239 0.5,0.5 v 3 c 0,0.2761 -0.2239,0.5 -0.5,0.5 h -7 C 64.2239,80 64,80.2239 64,80.5 v 3 c 0,0.2761 -0.2239,0.5 -0.5,0.5 z m 28,-4 h -7 C 84.2239,80 84,79.7761 84,79.5 v -7 C 84,72.2239 83.7761,72 83.5,72 h -15 C 68.2239,72 68,71.7761 68,71.5 v -3 C 68,68.2239 68.2239,68 68.5,68 h 23 c 0.2761,0 0.5,0.2239 0.5,0.5 v 3 c 0,0.2761 -0.2239,0.5 -0.5,0.5 h -3 C 88.2239,72 88,72.2239 88,72.5 v 3 c 0,0.2761 0.2239,0.5 0.5,0.5 h 3 c 0.2761,0 0.5,0.2239 0.5,0.5 v 3 c 0,0.2761 -0.2239,0.5 -0.5,0.5 z m -12,0 h -3 C 76.2239,80 76,79.7761 76,79.5 v -3 C 76,76.2239 76.2239,76 76.5,76 h 3 c 0.2761,0 0.5,0.2239 0.5,0.5 v 3 c 0,0.2761 -0.2239,0.5 -0.5,0.5 z m -24,0 h -3 C 52.2239,80 52,79.7761 52,79.5 v -3 C 52,76.2239 51.7761,76 51.5,76 h -3 C 48.2239,76 48,75.7761 48,75.5 v -11 C 48,64.2239 47.7761,64 47.5,64 h -3 C 44.2239,64 44,63.7761 44,63.5 v -3 C 44,60.2239 44.2239,60 44.5,60 h 3 c 0.2761,0 0.5,-0.2239 0.5,-0.5 v -7 C 48,52.2239 47.7761,52 47.5,52 h -7 C 40.2239,52 40,51.7761 40,51.5 v -3 C 40,48.2239 40.2239,48 40.5,48 h 15 c 0.2761,0 0.5,0.2239 0.5,0.5 v 7 c 0,0.2761 0.2239,0.5 0.5,0.5 h 3 c 0.2761,0 0.5,0.2239 0.5,0.5 v 3 c 0,0.2761 -0.2239,0.5 -0.5,0.5 h -7 C 52.2239,60 52,60.2239 52,60.5 v 11 c 0,0.2761 0.2239,0.5 0.5,0.5 h 7 c 0.2761,0 0.5,0.2239 0.5,0.5 v 3 c 0,0.2761 -0.2239,0.5 -0.5,0.5 h -3 C 56.2239,76 56,76.2239 56,76.5 v 3 c 0,0.2761 -0.2239,0.5 -0.5,0.5 z m 40,-4 h -3 C 92.2239,76 92,75.7761 92,75.5 v -3 C 92,72.2239 92.2239,72 92.5,72 h 3 c 0.2761,0 0.5,0.2239 0.5,0.5 v 3 c 0,0.2761 -0.2239,0.5 -0.5,0.5 z m 4,-4 h -3 C 96.2239,72 96,71.7761 96,71.5 v -3 C 96,68.2239 95.7761,68 95.5,68 h -3 C 92.2239,68 92,67.7761 92,67.5 v -3 C 92,64.2239 92.2239,64 92.5,64 h 7 c 0.2761,0 0.5,0.2239 0.5,0.5 v 7 c 0,0.2761 -0.2239,0.5 -0.5,0.5 z m -36,0 h -3 C 60.2239,72 60,71.7761 60,71.5 v -3 C 60,68.2239 60.2239,68 60.5,68 h 3 c 0.2761,0 0.5,0.2239 0.5,0.5 v 3 c 0,0.2761 -0.2239,0.5 -0.5,0.5 z m 4,-4 h -3 C 64.2239,68 64,67.7761 64,67.5 v -3 C 64,64.2239 64.2239,64 64.5,64 h 3 c 0.2761,0 0.5,0.2239 0.5,0.5 v 3 c 0,0.2761 -0.2239,0.5 -0.5,0.5 z m -8,0 h -3 C 56.2239,68 56,67.7761 56,67.5 v -3 C 56,64.2239 56.2239,64 56.5,64 h 3 c 0.2761,0 0.5,0.2239 0.5,0.5 v 3 c 0,0.2761 -0.2239,0.5 -0.5,0.5 z m -16,0 h -11 C 32.2239,68 32,67.7761 32,67.5 v -3 C 32,64.2239 31.7761,64 31.5,64 h -3 C 28.2239,64 28,63.7761 28,63.5 v -11 C 28,52.2239 27.7761,52 27.5,52 h -7 C 20.2239,52 20,52.2239 20,52.5 v 7 c 0,0.2761 -0.2239,0.5 -0.5,0.5 h -3 C 16.2239,60 16,59.7761 16,59.5 v -11 C 16,48.2239 16.2239,48 16.5,48 h 19 c 0.2761,0 0.5,0.2239 0.5,0.5 v 3 c 0,0.2761 -0.2239,0.5 -0.5,0.5 h -3 C 32.2239,52 32,52.2239 32,52.5 v 7 c 0,0.2761 0.2239,0.5 0.5,0.5 h 3 c 0.2761,0 0.5,-0.2239 0.5,-0.5 v -3 C 36,56.2239 36.2239,56 36.5,56 h 7 c 0.2761,0 0.5,0.2239 0.5,0.5 v 3 c 0,0.2761 -0.2239,0.5 -0.5,0.5 h -3 C 40.2239,60 40,60.2239 40,60.5 v 3 c 0,0.2761 0.2239,0.5 0.5,0.5 h 3 c 0.2761,0 0.5,0.2239 0.5,0.5 v 3 c 0,0.2761 -0.2239,0.5 -0.5,0.5 z m -20,0 h -3 C 20.2239,68 20,67.7761 20,67.5 v -7 C 20,60.2239 20.2239,60 20.5,60 h 3 c 0.2761,0 0.5,0.2239 0.5,0.5 v 7 c 0,0.2761 -0.2239,0.5 -0.5,0.5 z m 68,-4 h -7 C 84.2239,64 84,63.7761 84,63.5 v -7 C 84,56.2239 83.7761,56 83.5,56 h -3 C 80.2239,56 80,56.2239 80,56.5 v 3 c 0,0.2761 -0.2239,0.5 -0.5,0.5 h -7 C 72.2239,60 72,60.2239 72,60.5 v 3 c 0,0.2761 -0.2239,0.5 -0.5,0.5 h -3 C 68.2239,64 68,63.7761 68,63.5 v -3 C 68,60.2239 67.7761,60 67.5,60 h -3 C 64.2239,60 64,59.7761 64,59.5 v -3 C 64,56.2239 64.2239,56 64.5,56 h 3 c 0.2761,0 0.5,-0.2239 0.5,-0.5 v -3 C 68,52.2239 67.7761,52 67.5,52 h -3 C 64.2239,52 64,51.7761 64,51.5 v -15 C 64,36.2239 64.2239,36 64.5,36 h 3 c 0.2761,0 0.5,0.2239 0.5,0.5 v 11 c 0,0.2761 0.2239,0.5 0.5,0.5 h 3 c 0.2761,0 0.5,0.2239 0.5,0.5 v 3 c 0,0.2761 0.2239,0.5 0.5,0.5 h 3 c 0.2761,0 0.5,-0.2239 0.5,-0.5 v -3 C 76,48.2239 76.2239,48 76.5,48 h 3 c 0.2761,0 0.5,0.2239 0.5,0.5 v 3 c 0,0.2761 0.2239,0.5 0.5,0.5 h 3 c 0.2761,0 0.5,-0.2239 0.5,-0.5 v -3 C 84,48.2239 84.2239,48 84.5,48 h 3 c 0.2761,0 0.5,0.2239 0.5,0.5 v 3 c 0,0.2761 0.2239,0.5 0.5,0.5 h 3 c 0.2761,0 0.5,-0.2239 0.5,-0.5 v -3 C 92,48.2239 92.2239,48 92.5,48 h 3 c 0.2761,0 0.5,0.2239 0.5,0.5 v 3 c 0,0.2761 0.2239,0.5 0.5,0.5 h 3 c 0.2761,0 0.5,0.2239 0.5,0.5 v 3 c 0,0.2761 -0.2239,0.5 -0.5,0.5 h -3 C 96.2239,56 96,56.2239 96,56.5 v 3 c 0,0.2761 -0.2239,0.5 -0.5,0.5 h -3 C 92.2239,60 92,60.2239 92,60.5 v 3 c 0,0.2761 -0.2239,0.5 -0.5,0.5 z m -28,-8 h -3 C 60.2239,56 60,55.7761 60,55.5 v -3 C 60,52.2239 60.2239,52 60.5,52 h 3 c 0.2761,0 0.5,0.2239 0.5,0.5 v 3 c 0,0.2761 -0.2239,0.5 -0.5,0.5 z m -4,-8 h -3 C 56.2239,48 56,47.7761 56,47.5 v -7 C 56,40.2239 55.7761,40 55.5,40 h -3 C 52.2239,40 52,40.2239 52,40.5 v 3 c 0,0.2761 -0.2239,0.5 -0.5,0.5 h -3 C 48.2239,44 48,43.7761 48,43.5 v -7 C 48,36.2239 48.2239,36 48.5,36 h 7 c 0.2761,0 0.5,-0.2239 0.5,-0.5 v -3 C 56,32.2239 56.2239,32 56.5,32 h 7 c 0.2761,0 0.5,0.2239 0.5,0.5 v 3 c 0,0.2761 -0.2239,0.5 -0.5,0.5 h -3 C 60.2239,36 60,36.2239 60,36.5 v 11 c 0,0.2761 -0.2239,0.5 -0.5,0.5 z m 40,-4 h -27 C 72.2239,44 72,43.7761 72,43.5 v -27 C 72,16.2239 72.2239,16 72.5,16 h 27 c 0.2761,0 0.5,0.2239 0.5,0.5 v 27 c 0,0.2761 -0.2239,0.5 -0.5,0.5 z m -56,0 h -27 C 16.2239,44 16,43.7761 16,43.5 v -27 C 16,16.2239 16.2239,16 16.5,16 h 27 c 0.2761,0 0.5,0.2239 0.5,0.5 v 27 C 44,43.7761 43.7761,44 43.5,44 Z M 96,39.5 v -19 C 96,20.2239 95.7761,20 95.5,20 h -19 C 76.2239,20 76,20.2239 76,20.5 v 19 c 0,0.2761 0.2239,0.5 0.5,0.5 h 19 c 0.2761,0 0.5,-0.2239 0.5,-0.5 z m -56,0 v -19 C 40,20.2239 39.7761,20 39.5,20 h -19 C 20.2239,20 20,20.2239 20,20.5 v 19 c 0,0.2761 0.2239,0.5 0.5,0.5 h 19 C 39.7761,40 40,39.7761 40,39.5 Z M 91.5,36 h -11 C 80.2239,36 80,35.7761 80,35.5 v -11 C 80,24.2239 80.2239,24 80.5,24 h 11 c 0.2761,0 0.5,0.2239 0.5,0.5 v 11 c 0,0.2761 -0.2239,0.5 -0.5,0.5 z m -56,0 h -11 C 24.2239,36 24,35.7761 24,35.5 v -11 C 24,24.2239 24.2239,24 24.5,24 h 11 c 0.2761,0 0.5,0.2239 0.5,0.5 v 11 c 0,0.2761 -0.2239,0.5 -0.5,0.5 z m 32,-4 h -3 C 64.2239,32 64,31.7761 64,31.5 v -3 C 64,28.2239 64.2239,28 64.5,28 h 3 c 0.2761,0 0.5,0.2239 0.5,0.5 v 3 c 0,0.2761 -0.2239,0.5 -0.5,0.5 z m -12,0 h -7 C 48.2239,32 48,31.7761 48,31.5 v -3 C 48,28.2239 48.2239,28 48.5,28 h 3 c 0.2761,0 0.5,-0.2239 0.5,-0.5 v -3 C 52,24.2239 51.7761,24 51.5,24 h -3 C 48.2239,24 48,23.7761 48,23.5 v -3 C 48,20.2239 48.2239,20 48.5,20 h 11 c 0.2761,0 0.5,0.2239 0.5,0.5 v 3 c 0,0.2761 -0.2239,0.5 -0.5,0.5 h -3 C 56.2239,24 56,24.2239 56,24.5 v 7 c 0,0.2761 -0.2239,0.5 -0.5,0.5 z m 12,-8 h -3 C 64.2239,24 64,23.7761 64,23.5 v -3 C 64,20.2239 64.2239,20 64.5,20 h 3 c 0.2761,0 0.5,0.2239 0.5,0.5 v 3 c 0,0.2761 -0.2239,0.5 -0.5,0.5 z m -4,-4 h -3 C 60.2239,20 60,19.7761 60,19.5 v -3 C 60,16.2239 60.2239,16 60.5,16 h 3 c 0.2761,0 0.5,0.2239 0.5,0.5 v 3 c 0,0.2761 -0.2239,0.5 -0.5,0.5 z"
             id="path30" /></g></g><text
         xml:space="preserve"
         style="font-style:normal;font-variant:normal;font-weight:normal;font-stretch:normal;font-size:13.3333px;font-family:Nunito;-inkscape-font-specification:Nunito;text-align:center;writing-mode:lr-tb;direction:ltr;text-anchor:middle;fill:#ffffff;fill-opacity:1;stroke-width:3.77953;stroke-dasharray:none"
         x="686.07471"
         y="647.57416"
         id="text48"><tspan
           sodipodi:role="line"
           id="tspan48"
           x="686.07471"
           y="647.57416">luga.de/LIT-2026</tspan></text></g></g></svg>
